<?xml version="1.0" encoding="UTF-8" standalone="no"?>
<!-- Generator: Adobe Illustrator 22.1.0, SVG Export Plug-In . SVG Version: 6.00 Build 0)  -->

<svg
   xmlns:dc="http://purl.org/dc/elements/1.1/"
   xmlns:cc="http://creativecommons.org/ns#"
   xmlns:rdf="http://www.w3.org/1999/02/22-rdf-syntax-ns#"
   xmlns:svg="http://www.w3.org/2000/svg"
   xmlns="http://www.w3.org/2000/svg"
   xmlns:sodipodi="http://sodipodi.sourceforge.net/DTD/sodipodi-0.dtd"
   xmlns:inkscape="http://www.inkscape.org/namespaces/inkscape"
   version="1.2"
   id="Слой_1"
   x="0px"
   y="0px"
   viewBox="0 0 37 37"
   xml:space="preserve"
   inkscape:version="0.91 r13725"
   sodipodi:docname="icon-payment-1.svg"
   width="37"
   height="37"><metadata
     id="metadata15"><rdf:RDF><cc:Work
         rdf:about=""><dc:format>image/svg+xml</dc:format><dc:type
           rdf:resource="http://purl.org/dc/dcmitype/StillImage" /><dc:title></dc:title></cc:Work></rdf:RDF></metadata><defs
     id="defs13" /><sodipodi:namedview
     pagecolor="#ffffff"
     bordercolor="#666666"
     borderopacity="1"
     objecttolerance="10"
     gridtolerance="10"
     guidetolerance="10"
     inkscape:pageopacity="0"
     inkscape:pageshadow="2"
     inkscape:window-width="1920"
     inkscape:window-height="1017"
     id="namedview11"
     showgrid="false"
     fit-margin-top="0"
     fit-margin-left="0"
     fit-margin-right="0"
     fit-margin-bottom="0"
     inkscape:zoom="16.361312"
     inkscape:cx="20.737013"
     inkscape:cy="18.847638"
     inkscape:window-x="-8"
     inkscape:window-y="-8"
     inkscape:window-maximized="1"
     inkscape:current-layer="Слой_1" /><g
     id="g3"
     transform="matrix(0.41110809,0,0,0.41110809,-1.3909082e-4,1.8669303)"><path
       d="m 67.499,69.796 -6.61,0 c -1.381,0 -2.5,1.119 -2.5,2.5 0,1.381 1.119,2.5 2.5,2.5 l 6.61,0 c 1.381,0 2.5,-1.119 2.5,-2.5 0,-1.381 -1.119,-2.5 -2.5,-2.5 z"
       id="path5"
       inkscape:connector-curvature="0"
       style="fill:#444444" /><path
       d="m 50.509,69.796 -6.6,0 c -1.381,0 -2.5,1.119 -2.5,2.5 0,1.381 1.119,2.5 2.5,2.5 l 6.6,0 c 1.381,0 2.5,-1.119 2.5,-2.5 0,-1.381 -1.119,-2.5 -2.5,-2.5 z"
       id="path7"
       inkscape:connector-curvature="0"
       style="fill:#444444" /><path
       d="m 84.022,32.67 -17.897,0 C 65.421,29.448 64.39,26.307 63.049,23.294 61.911,20.7 60.636,18.168 59.229,15.709 56.425,10.751 51.538,7.318 45.923,6.361 L 9.467,0.034 C 8.217,-0.182 7.029,0.657 6.813,1.907 6.597,3.157 7.436,4.345 8.686,4.561 l 36.493,6.327 c 4.247,0.738 7.938,3.344 10.055,7.098 1.307,2.314 2.49,4.696 3.545,7.135 1.076,2.436 1.937,4.962 2.571,7.548 l -15.308,0 c 0.215,-0.543 0.399,-1.098 0.551,-1.662 0.34,-1.225 -0.378,-2.493 -1.602,-2.833 -1.225,-0.34 -2.493,0.378 -2.833,1.602 -0.305,1.204 -0.855,2.333 -1.616,3.315 -2.176,-1.406 -4.049,-3.232 -5.51,-5.372 -0.725,-1.05 -2.164,-1.313 -3.214,-0.588 -1.05,0.725 -1.313,2.164 -0.588,3.214 1.869,2.721 4.279,5.029 7.08,6.777 l 11.791,7.475 c 1.894,1.192 2.464,3.694 1.272,5.588 -1.192,1.894 -3.694,2.464 -5.588,1.272 L 36.74,45.874 C 33.144,43.632 28.965,42.504 24.729,42.632 18.967,42.814 13.511,40.044 10.257,35.286 L 9.844,34.68 C 8.181,32.247 6.033,30.184 3.535,28.619 c -1.08,-0.677 -2.505,-0.35 -3.182,0.73 -0.677,1.08 -0.35,2.505 0.73,3.182 1.966,1.23 3.658,2.852 4.968,4.766 l 0.413,0.606 c 2.361,3.432 5.67,6.102 9.523,7.686 l -0.569,0.56 c -2.851,2.815 -2.88,7.408 -0.065,10.259 0.841,0.851 1.879,1.482 3.022,1.835 -0.851,3.79 1.531,7.553 5.322,8.404 1.283,0.288 2.62,0.211 3.861,-0.223 l 0.321,-0.11 0,9.302 c 0,3.302 2.676,5.978 5.978,5.978 l 50.166,0 c 3.302,0 5.978,-2.676 5.978,-5.978 l 0,-36.978 C 89.995,35.34 87.32,32.67 84.022,32.67 Z M 27.897,61.458 26.042,62.11 c -1.277,0.436 -2.665,-0.245 -3.101,-1.522 -0.364,-1.066 0.048,-2.243 0.998,-2.849 l 0.073,-0.055 c 0.11,-0.064 0.23,-0.11 0.34,-0.174 l 3.545,-2.176 0,6.124 z m 0.018,-11.479 -0.138,0.064 -5.822,3.581 c -1.237,0.805 -2.892,0.454 -3.697,-0.783 -0.703,-1.08 -0.534,-2.508 0.4,-3.395 l -0.018,-0.028 2.489,-2.424 c 1.243,0.181 2.5,0.255 3.756,0.22 1.014,-0.026 2.028,0.038 3.03,0.193 l 0,2.572 z m 19.109,-12.718 36.998,0 c 0.762,0 1.382,0.615 1.387,1.377 l 0,6.428 -29.385,0 c -0.66,-1.764 -1.879,-3.263 -3.471,-4.27 l -5.529,-3.535 z m 36.998,39.743 -50.147,0 c -0.766,0 -1.387,-0.621 -1.387,-1.387 l 0,-26.822 c 0.632,0.29 1.245,0.618 1.837,0.983 l 9.027,5.62 c 1.375,0.863 2.968,1.318 4.591,1.313 0.69,-10e-4 1.377,-0.085 2.048,-0.248 2.26,-0.538 4.205,-1.969 5.39,-3.967 0.52,-0.873 0.884,-1.83 1.074,-2.828 l 28.953,0 0,20.312 c -0.288,-0.116 -0.6,-0.183 -0.93,-0.183 l -6.6,0 c -1.381,0 -2.5,1.119 -2.5,2.5 0,1.381 1.119,2.5 2.5,2.5 l 6.6,0 c 0.329,0 0.642,-0.067 0.93,-0.183 l 0,1.004 c 0.001,0.765 -0.62,1.386 -1.386,1.386 z"
       id="path9"
       inkscape:connector-curvature="0"
       style="fill:#444444" /></g></svg>