<?xml version="1.0" encoding="UTF-8" standalone="no"?>
<!-- Generator: Adobe Illustrator 22.1.0, SVG Export Plug-In . SVG Version: 6.00 Build 0)  -->

<svg
   xmlns:dc="http://purl.org/dc/elements/1.1/"
   xmlns:cc="http://creativecommons.org/ns#"
   xmlns:rdf="http://www.w3.org/1999/02/22-rdf-syntax-ns#"
   xmlns:svg="http://www.w3.org/2000/svg"
   xmlns="http://www.w3.org/2000/svg"
   xmlns:sodipodi="http://sodipodi.sourceforge.net/DTD/sodipodi-0.dtd"
   xmlns:inkscape="http://www.inkscape.org/namespaces/inkscape"
   version="1.2"
   id="Слой_1"
   x="0px"
   y="0px"
   viewBox="0 0 49.999999 50"
   xml:space="preserve"
   inkscape:version="0.91 r13725"
   sodipodi:docname="icon-loader-1.svg"
   width="50"
   height="50"><metadata
     id="metadata17"><rdf:RDF><cc:Work
         rdf:about=""><dc:format>image/svg+xml</dc:format><dc:type
           rdf:resource="http://purl.org/dc/dcmitype/StillImage" /><dc:title></dc:title></cc:Work></rdf:RDF></metadata><defs
     id="defs15" /><sodipodi:namedview
     pagecolor="#ffffff"
     bordercolor="#666666"
     borderopacity="1"
     objecttolerance="10"
     gridtolerance="10"
     guidetolerance="10"
     inkscape:pageopacity="0"
     inkscape:pageshadow="2"
     inkscape:window-width="1920"
     inkscape:window-height="1017"
     id="namedview13"
     showgrid="false"
     inkscape:zoom="13.350176"
     inkscape:cx="29.266459"
     inkscape:cy="24.786622"
     inkscape:window-x="-8"
     inkscape:window-y="-8"
     inkscape:window-maximized="1"
     inkscape:current-layer="Слой_1" /><g
     id="g3"
     transform="translate(11.55057,0)"><path
       d="m 14.05,19.244 c -0.083,-0.139 -0.222,-0.222 -0.278,-0.222 l -2.502,0 c 0.056,-5.336 2.779,-6.531 3.418,-7.031 0.139,-0.056 0.139,-0.028 0,-0.028 -4.197,0 -6.892,3.057 -6.948,7.087 l -2.473,0 c -0.139,0 -0.278,0.083 -0.278,0.222 -0.083,0.139 -0.083,0.278 0,0.361 l 4.252,5.447 c 0.083,0.083 0.139,0.139 0.278,0.139 0.139,0 0.222,-0.056 0.278,-0.139 l 4.252,-5.475 c 0.084,-0.083 0.084,-0.222 0.001,-0.361 z"
       id="path5"
       inkscape:connector-curvature="0"
       style="fill:#25925e" /><path
       d="m 19.441,12.074 c -0.083,-0.083 -0.139,-0.139 -0.278,-0.139 -0.139,0 -0.222,0.056 -0.278,0.139 l -4.28,5.475 c -0.083,0.083 -0.083,0.222 0,0.361 0.083,0.139 0.222,0.222 0.278,0.222 l 2.501,0 c -0.056,5.336 -2.779,6.531 -3.418,7.031 -0.139,0.056 -0.139,0.028 0,0.028 4.197,0 6.892,-3.057 6.948,-7.087 l 2.473,0 c 0.139,0 0.278,-0.083 0.278,-0.222 0.083,-0.139 0.083,-0.278 0,-0.361 l -4.224,-5.447 z"
       id="path7"
       inkscape:connector-curvature="0"
       style="fill:#25925e" /><path
       d="M 24.854,0 3.801,0 C 1.696,0 0,1.696 0,3.801 L 0,46.199 C 0,48.304 1.696,50 3.801,50 l 21.053,0 c 2.105,0 3.801,-1.696 3.801,-3.801 l 0,-42.398 C 28.655,1.696 26.959,0 24.854,0 Z m 2.047,46.199 c 0,1.111 -0.936,2.047 -2.047,2.047 l -21.053,0 c -1.111,0 -2.047,-0.936 -2.047,-2.047 l 0,-42.398 C 1.754,2.69 2.69,1.754 3.801,1.754 l 21.053,0 c 1.111,0 2.047,0.936 2.047,2.047 l 0,42.398 z"
       id="path9"
       inkscape:connector-curvature="0"
       style="fill:#25925e" /><path
       d="m 14.327,37.719 c -2.105,0 -3.801,1.696 -3.801,3.801 0,2.105 1.696,3.801 3.801,3.801 2.105,0 3.801,-1.696 3.801,-3.801 0.001,-2.105 -1.695,-3.801 -3.801,-3.801 z m 0,5.848 c -1.111,0 -2.047,-0.936 -2.047,-2.047 0,-1.111 0.936,-2.047 2.047,-2.047 1.111,0 2.047,0.936 2.047,2.047 0,1.112 -0.935,2.047 -2.047,2.047 z"
       id="path11"
       inkscape:connector-curvature="0"
       style="fill:#25925e" /></g></svg>