<?xml version="1.0" encoding="UTF-8" standalone="no"?>
<!-- Generator: Adobe Illustrator 22.1.0, SVG Export Plug-In . SVG Version: 6.00 Build 0)  -->

<svg
   xmlns:dc="http://purl.org/dc/elements/1.1/"
   xmlns:cc="http://creativecommons.org/ns#"
   xmlns:rdf="http://www.w3.org/1999/02/22-rdf-syntax-ns#"
   xmlns:svg="http://www.w3.org/2000/svg"
   xmlns="http://www.w3.org/2000/svg"
   xmlns:sodipodi="http://sodipodi.sourceforge.net/DTD/sodipodi-0.dtd"
   xmlns:inkscape="http://www.inkscape.org/namespaces/inkscape"
   version="1.2"
   id="Слой_1"
   x="0px"
   y="0px"
   viewBox="0 0 37 36.999999"
   xml:space="preserve"
   inkscape:version="0.91 r13725"
   sodipodi:docname="icon-delivery-2.svg"
   width="37"
   height="37"><metadata
     id="metadata61"><rdf:RDF><cc:Work
         rdf:about=""><dc:format>image/svg+xml</dc:format><dc:type
           rdf:resource="http://purl.org/dc/dcmitype/StillImage" /><dc:title></dc:title></cc:Work></rdf:RDF></metadata><defs
     id="defs59" /><sodipodi:namedview
     pagecolor="#ffffff"
     bordercolor="#666666"
     borderopacity="1"
     objecttolerance="10"
     gridtolerance="10"
     guidetolerance="10"
     inkscape:pageopacity="0"
     inkscape:pageshadow="2"
     inkscape:window-width="1920"
     inkscape:window-height="1017"
     id="namedview57"
     showgrid="false"
     fit-margin-top="0"
     fit-margin-left="0"
     fit-margin-right="0"
     fit-margin-bottom="0"
     inkscape:zoom="6.4666667"
     inkscape:cx="13.53249"
     inkscape:cy="9.3450939"
     inkscape:window-x="-8"
     inkscape:window-y="-8"
     inkscape:window-maximized="1"
     inkscape:current-layer="Слой_1" /><g
     id="g3"
     transform="matrix(0.41111111,0,0,0.41111111,0,6.278581)"><g
       id="g5"><path
         d="m 11.218,62.691 c -3.54,0 -6.41,-2.87 -6.41,-6.41 0,-3.54 2.87,-6.41 6.41,-6.41 3.54,0 6.41,2.87 6.41,6.41 0,3.54 -2.87,6.41 -6.41,6.41 z m 0,-9.615 c -1.77,0 -3.205,1.435 -3.205,3.205 0,1.77 1.435,3.205 3.205,3.205 1.77,0 3.205,-1.435 3.205,-3.205 0,-1.77 -1.435,-3.205 -3.205,-3.205 z"
         id="path7"
         inkscape:connector-curvature="0"
         style="fill:#444444" /><path
         d="m 57.692,62.691 c -3.54,0 -6.41,-2.87 -6.41,-6.41 0,-3.54 2.87,-6.41 6.41,-6.41 3.54,0 6.41,2.87 6.41,6.41 0,3.54 -2.87,6.41 -6.41,6.41 z m 0,-9.615 c -1.77,0 -3.205,1.435 -3.205,3.205 0,1.77 1.435,3.205 3.205,3.205 1.77,0 3.205,-1.435 3.205,-3.205 0,-1.77 -1.435,-3.205 -3.205,-3.205 z"
         id="path9"
         inkscape:connector-curvature="0"
         style="fill:#444444" /><path
         d="m 20.833,57.884 -4.808,0 0,-3.205 3.205,0 0,-19.231 -8.013,0 c -4.423,0.005 -8.007,3.59 -8.013,8.013 l 0,11.218 3.206,0 0,3.205 -4.807,0 C 0.717,57.884 0,57.166 0,56.281 L 0,43.461 C 0.008,37.269 5.026,32.251 11.218,32.243 l 9.615,0 c 0.885,0 1.603,0.717 1.603,1.603 l 0,22.436 c 0,0.884 -0.718,1.602 -1.603,1.602 z"
         id="path11"
         inkscape:connector-curvature="0"
         style="fill:#444444" /><path
         d="m 52.884,57.884 -32.051,0 c -0.885,0 -1.603,-0.717 -1.603,-1.603 l 0,-30.448 c 0,-2.655 2.152,-4.808 4.808,-4.808 l 0.448,0 0,3.205 -0.448,0 c -0.885,0 -1.603,0.717 -1.603,1.603 l 0,28.846 30.448,0 0,3.205 z"
         id="path13"
         inkscape:connector-curvature="0"
         style="fill:#444444" /><path
         d="m 65.705,57.884 -3.205,0 0,-3.205 3.205,0 c 0.885,0 1.603,-0.717 1.603,-1.603 l 0,-18.333 3.205,0 0,18.333 c -0.001,2.655 -2.153,4.808 -4.808,4.808 z"
         id="path15"
         inkscape:connector-curvature="0"
         style="fill:#444444" /><path
         d="m 31.794,41.858 c -0.235,0 -0.467,-0.052 -0.679,-0.152 -0.563,-0.264 -0.923,-0.829 -0.923,-1.45 l 0,-6.586 c -3.045,-0.712 -4.808,-3.526 -4.808,-7.836 l 0,-17.821 C 25.389,3.59 28.973,0.005 33.396,0 L 81.987,0 C 86.41,0.005 89.995,3.59 90,8.013 l 0,17.82 c -0.005,4.423 -3.59,8.007 -8.013,8.013 l -39.998,0 -9.168,7.643 c -0.289,0.238 -0.652,0.369 -1.027,0.369 z M 33.396,3.205 c -2.655,0 -4.808,2.152 -4.808,4.808 l 0,17.82 c 0,4.808 2.404,4.808 3.205,4.808 0.885,0 1.603,0.717 1.603,1.603 l 0,4.591 6.986,-5.824 c 0.289,-0.239 0.652,-0.37 1.027,-0.37 l 40.578,0 c 2.655,0 4.808,-2.152 4.808,-4.808 l 0,-17.82 c 0,-2.655 -2.152,-4.808 -4.808,-4.808 l -48.591,0 z"
         id="path17"
         inkscape:connector-curvature="0"
         style="fill:#444444" /><rect
         x="25.641001"
         y="48.268002"
         width="3.2049999"
         height="3.2049999"
         id="rect19"
         style="fill:#444444" /><rect
         x="32.050999"
         y="48.268002"
         width="3.2049999"
         height="3.2049999"
         id="rect21"
         style="fill:#444444" /><rect
         x="38.460999"
         y="48.268002"
         width="3.2049999"
         height="3.2049999"
         id="rect23"
         style="fill:#444444" /></g><g
       id="g25"><g
         id="g27"><path
           d="m 40.928,8.229 c 0.169,0.132 0.353,0.25 0.506,0.399 1.03,1.011 2.056,2.026 3.077,3.046 0.092,0.092 0.135,0.234 0.201,0.353 -0.124,0.032 -0.248,0.089 -0.373,0.093 -0.394,0.012 -0.79,0 -1.184,0.006 -0.415,0.006 -0.562,0.16 -0.562,0.575 -0.001,0.776 0,1.552 -0.001,2.328 0,0.404 -0.149,0.556 -0.554,0.557 -0.81,0.003 -1.62,0.002 -2.43,0 -0.349,-10e-4 -0.506,-0.162 -0.507,-0.517 -0.002,-0.797 0,-1.593 -10e-4,-2.39 -0.001,-0.385 -0.153,-0.546 -0.543,-0.553 -0.463,-0.008 -0.926,0.003 -1.389,-0.007 -0.096,-0.002 -0.191,-0.064 -0.286,-0.098 0.042,-0.095 0.06,-0.213 0.128,-0.281 1.118,-1.115 2.242,-2.225 3.368,-3.332 0.075,-0.073 0.175,-0.12 0.264,-0.179 0.096,0 0.191,0 0.286,0 z"
           id="path29"
           inkscape:connector-curvature="0"
           style="fill:#ed1c24" /><path
           d="m 31.329,17.42 c 0.112,-0.134 0.215,-0.277 0.338,-0.4 1.063,-1.055 2.128,-2.107 3.197,-3.155 0.08,-0.078 0.201,-0.114 0.303,-0.17 0.038,0.116 0.107,0.232 0.108,0.348 0.006,2.328 0.005,4.655 0.005,6.983 0,0.048 0.003,0.096 -0.003,0.143 -0.025,0.207 -0.135,0.257 -0.307,0.139 -0.05,-0.034 -0.092,-0.08 -0.135,-0.124 -1.106,-1.108 -2.211,-2.216 -3.315,-3.326 -0.071,-0.071 -0.127,-0.156 -0.19,-0.234 -10e-4,-0.068 -10e-4,-0.136 -10e-4,-0.204 z"
           id="path31"
           inkscape:connector-curvature="0"
           style="fill:#ed1c24" /><path
           d="m 39.1,21.19 c 0,-0.429 -0.002,-0.857 10e-4,-1.286 0.002,-0.361 0.162,-0.52 0.526,-0.521 0.803,-0.002 1.606,-0.003 2.408,0 0.399,0.001 0.556,0.162 0.557,0.558 0.001,0.837 -10e-4,1.674 0.001,2.51 10e-4,0.435 0.158,0.593 0.588,0.595 0.401,0.002 0.803,-0.004 1.204,0.007 0.084,0.002 0.166,0.063 0.248,0.097 -0.044,0.071 -0.076,0.155 -0.133,0.212 -1.083,1.091 -2.17,2.179 -3.255,3.268 -0.342,0.343 -0.554,0.344 -0.894,0.003 -1.1,-1.103 -2.201,-2.205 -3.299,-3.311 -0.046,-0.046 -0.059,-0.123 -0.088,-0.186 0.065,-0.028 0.13,-0.079 0.196,-0.081 0.442,-0.009 0.884,-0.007 1.326,-0.009 0.459,-0.002 0.612,-0.154 0.613,-0.612 0.001,-0.414 0,-0.829 0.001,-1.244 z"
           id="path33"
           inkscape:connector-curvature="0"
           style="fill:#ed1c24" /><path
           d="m 46.412,17.507 c 0,-1.123 0,-2.246 0,-3.369 0,-0.061 -0.01,-0.125 0.005,-0.183 0.015,-0.061 0.04,-0.148 0.085,-0.166 0.042,-0.017 0.129,0.025 0.172,0.066 1.133,1.1 2.264,2.201 3.392,3.306 0.252,0.247 0.24,0.463 -0.017,0.717 -1.103,1.091 -2.206,2.183 -3.311,3.272 -0.059,0.058 -0.141,0.09 -0.213,0.135 C 46.488,21.196 46.42,21.108 46.418,21.018 46.409,20.29 46.413,19.562 46.413,18.833 46.412,18.392 46.412,17.95 46.412,17.507 Z"
           id="path35"
           inkscape:connector-curvature="0"
           style="fill:#ed1c24" /></g><g
         id="g37"><path
           d="m 71.904,22.974 c 0,-0.09 0,-0.169 0,-0.249 0,-1.13 0,-2.259 0,-3.389 0,-0.082 -0.002,-0.164 0.006,-0.245 0.04,-0.392 0.198,-0.546 0.589,-0.555 0.353,-0.009 0.707,-0.002 1.076,-0.002 0,0.334 0,0.656 0,1.001 -0.092,0.005 -0.185,0.02 -0.276,0.012 -0.17,-0.014 -0.225,0.055 -0.223,0.224 0.007,0.769 0.003,1.538 0.003,2.307 0,0.463 0.005,0.926 -0.004,1.388 -0.008,0.424 -0.182,0.597 -0.602,0.597 -1.776,0.003 -3.553,0.003 -5.329,0 -0.462,-10e-4 -0.641,-0.184 -0.642,-0.648 -0.003,-1.198 -10e-4,-2.396 -10e-4,-3.593 0,-0.269 -0.001,-0.283 -0.269,-0.268 -0.197,0.011 -0.243,-0.066 -0.234,-0.245 0.012,-0.25 0.003,-0.5 0.003,-0.757 0.43,0 0.837,-0.023 1.24,0.007 0.297,0.022 0.428,0.221 0.433,0.567 0.007,0.429 0.003,0.857 0.003,1.286 0,0.776 0,1.552 0,2.328 0,0.073 0,0.146 0,0.233 0.514,0 1.007,0 1.525,0 0,-0.741 0,-1.473 0,-2.206 0,-0.734 0,-1.469 0,-2.219 0.388,0 0.765,0 1.172,0 0,1.469 0,2.94 0,4.425 0.522,0.001 1.014,0.001 1.53,0.001 z"
           id="path39"
           inkscape:connector-curvature="0"
           style="fill:#ed1c24" /><path
           d="m 65.824,14.147 c -0.027,1.565 -1.219,2.907 -2.992,2.881 -1.608,-0.024 -2.835,-1.381 -2.787,-3.033 0.04,-1.396 1.196,-2.687 2.847,-2.682 1.947,0.007 2.944,1.491 2.932,2.834 z m -1.233,-0.006 c 0.004,-0.653 -0.324,-1.252 -0.895,-1.514 -0.564,-0.26 -1.14,-0.295 -1.683,0.092 -0.7,0.499 -0.901,1.509 -0.468,2.329 0.594,1.125 2.007,1.076 2.666,0.213 0.252,-0.331 0.379,-0.705 0.38,-1.12 z"
           id="path41"
           inkscape:connector-curvature="0"
           style="fill:#ed1c24" /><path
           d="m 65.72,21.261 c 0.015,1.445 -1.071,2.911 -2.979,2.897 -1.511,-0.011 -2.765,-1.329 -2.756,-2.914 0.009,-1.548 1.252,-2.794 2.763,-2.803 1.902,-0.011 2.997,1.404 2.972,2.82 z m -4.513,-0.014 c 0.021,0.154 0.026,0.312 0.064,0.462 0.171,0.67 0.559,1.176 1.258,1.293 0.641,0.107 1.225,-0.081 1.627,-0.649 0.193,-0.272 0.306,-0.578 0.33,-0.908 0.079,-1.109 -0.608,-1.894 -1.747,-1.876 -0.876,0.016 -1.515,0.761 -1.532,1.678 z"
           id="path43"
           inkscape:connector-curvature="0"
           style="fill:#ed1c24" /><path
           d="m 69.852,14.015 c 0.839,0.626 0.976,1.626 0.322,2.334 -0.351,0.38 -0.809,0.551 -1.313,0.57 -0.571,0.022 -1.143,0.011 -1.715,0.006 -0.33,-0.003 -0.482,-0.144 -0.53,-0.472 -0.015,-0.1 -0.019,-0.203 -0.019,-0.305 -10e-4,-1.15 -10e-4,-2.301 -10e-4,-3.451 0,-0.08 0,-0.161 0,-0.264 -0.17,0 -0.323,0 -0.487,0 0,-0.346 0,-0.669 0,-1.004 0.037,-0.007 0.069,-0.017 0.101,-0.017 0.878,0.002 1.756,-0.012 2.634,0.014 0.931,0.027 1.542,0.69 1.485,1.564 -0.023,0.351 -0.125,0.572 -0.477,1.025 z m -2.079,0.544 c 0,0.412 -0.003,0.798 0.004,1.183 0.001,0.042 0.063,0.119 0.097,0.119 0.332,10e-4 0.667,0.016 0.994,-0.026 0.32,-0.041 0.502,-0.32 0.488,-0.651 -0.015,-0.343 -0.224,-0.597 -0.556,-0.62 -0.33,-0.022 -0.663,-0.005 -1.027,-0.005 z m 0.002,-2.13 c 0,0.369 -0.003,0.713 0.005,1.057 0.001,0.034 0.075,0.094 0.116,0.096 0.251,0.009 0.503,0.016 0.752,0 0.31,-0.021 0.509,-0.271 0.506,-0.604 -0.004,-0.331 -0.192,-0.533 -0.528,-0.545 -0.271,-0.012 -0.542,-0.004 -0.851,-0.004 z"
           id="path45"
           inkscape:connector-curvature="0"
           style="fill:#ed1c24" /><path
           d="m 59.218,22.986 c 0.159,0 0.292,0 0.438,0 0,0.362 0,0.706 0,1.043 -0.433,0 -0.865,0.016 -1.295,-0.007 -0.201,-0.011 -0.319,-0.173 -0.349,-0.374 -0.021,-0.141 -0.028,-0.285 -0.028,-0.427 -0.002,-1.143 -0.005,-2.287 0.003,-3.43 10e-4,-0.187 -0.053,-0.249 -0.242,-0.245 -0.537,0.011 -1.075,0.003 -1.613,0.004 -0.066,0 -0.133,0.007 -0.218,0.013 0,1.503 0,2.99 0,4.49 -0.397,0 -0.774,0 -1.18,0 0,-0.087 0,-0.166 0,-0.246 0,-1.341 -0.004,-2.682 0.004,-4.022 10e-4,-0.193 -0.06,-0.247 -0.244,-0.239 -0.264,0.011 -0.265,0.001 -0.265,-0.267 0,-0.191 0.005,-0.381 -10e-4,-0.572 -0.004,-0.128 0.036,-0.178 0.174,-0.178 1.382,0.005 2.763,0 4.145,0.005 0.468,0.002 0.669,0.213 0.67,0.682 0.003,1.164 0.001,2.328 0.001,3.492 0,0.082 0,0.163 0,0.278 z"
           id="path47"
           inkscape:connector-curvature="0"
           style="fill:#ed1c24" /><path
           d="m 59.264,16.916 c -0.408,0 -0.78,0 -1.176,0 0,-0.736 0,-1.46 0,-2.197 -0.73,0 -1.435,0 -2.162,0 0,0.722 0,1.447 0,2.19 -0.398,0 -0.775,0 -1.191,0 0,-0.076 0,-0.16 0,-0.245 0,-1.3 0,-2.6 0,-3.9 0,-0.398 0.005,-0.332 -0.323,-0.336 -0.047,-0.001 -0.094,0 -0.175,0 0,-0.321 -0.004,-0.631 0.006,-0.939 10e-4,-0.028 0.089,-0.075 0.137,-0.076 0.347,-0.004 0.694,-0.006 1.041,0.007 0.267,0.01 0.416,0.139 0.459,0.404 0.03,0.186 0.03,0.379 0.032,0.568 0.004,0.401 10e-4,0.802 10e-4,1.221 0.721,0 1.431,0 2.166,0 0.003,-0.066 0.01,-0.138 0.01,-0.21 0.001,-0.463 -0.002,-0.926 0.003,-1.388 0.004,-0.412 0.169,-0.586 0.58,-0.598 0.352,-0.011 0.705,-0.002 1.074,-0.002 0,0.337 0,0.66 0,1.014 -0.084,0 -0.171,0.009 -0.255,-0.002 -0.185,-0.023 -0.229,0.062 -0.228,0.235 0.006,1.334 0.003,2.668 0.003,4.002 -0.002,0.079 -0.002,0.159 -0.002,0.252 z"
           id="path49"
           inkscape:connector-curvature="0"
           style="fill:#ed1c24" /><path
           d="m 83.596,22.974 c 0,0.383 0,0.726 0,1.083 -0.281,0 -0.552,0.014 -0.821,-0.004 -0.262,-0.017 -0.43,-0.17 -0.52,-0.421 -0.099,-0.274 -0.219,-0.541 -0.323,-0.814 -0.039,-0.103 -0.095,-0.146 -0.21,-0.144 -0.442,0.006 -0.884,0.007 -1.326,0 -0.117,-0.002 -0.17,0.045 -0.209,0.147 -0.102,0.266 -0.222,0.526 -0.315,0.795 -0.099,0.289 -0.296,0.434 -0.59,0.446 -0.258,0.01 -0.516,0.002 -0.792,0.002 0,-0.356 0,-0.704 0,-1.051 0.015,-0.008 0.026,-0.018 0.038,-0.019 0.326,-0.019 0.325,-0.019 0.442,-0.34 0.476,-1.308 0.954,-2.615 1.423,-3.925 0.056,-0.156 0.128,-0.209 0.291,-0.199 0.258,0.015 0.517,0.013 0.775,0 0.148,-0.007 0.211,0.045 0.261,0.183 0.475,1.323 0.962,2.641 1.435,3.964 0.077,0.214 0.152,0.381 0.441,0.297 z M 80.56,21.649 c 0.347,0 0.662,0 1,0 -0.17,-0.52 -0.331,-1.014 -0.5,-1.532 -0.17,0.519 -0.331,1.012 -0.5,1.532 z"
           id="path51"
           inkscape:connector-curvature="0"
           style="fill:#ed1c24" /><path
           d="m 76.037,15.859 c 0,0.372 0,0.704 0,1.04 -0.322,0 -0.639,0.021 -0.952,-0.007 -0.216,-0.019 -0.322,-0.205 -0.397,-0.398 -0.105,-0.272 -0.221,-0.541 -0.324,-0.814 -0.04,-0.106 -0.099,-0.144 -0.212,-0.143 -0.436,0.006 -0.871,-0.004 -1.307,0.009 -0.071,0.002 -0.174,0.073 -0.204,0.138 -0.123,0.272 -0.229,0.552 -0.332,0.833 -0.099,0.269 -0.292,0.402 -0.572,0.408 -0.264,0.005 -0.529,10e-4 -0.811,10e-4 0,-0.349 0,-0.685 0,-1.023 0.008,-0.007 0.02,-0.023 0.029,-0.022 0.282,0.041 0.375,-0.123 0.46,-0.362 0.462,-1.306 0.946,-2.605 1.412,-3.91 0.057,-0.158 0.13,-0.21 0.292,-0.202 0.258,0.013 0.518,0.014 0.775,0 0.16,-0.009 0.224,0.057 0.275,0.199 0.473,1.317 0.956,2.631 1.427,3.949 0.076,0.21 0.148,0.385 0.441,0.304 z m -2.04,-1.341 C 73.829,14 73.669,13.503 73.499,12.977 c -0.172,0.529 -0.334,1.027 -0.501,1.541 0.333,0 0.65,0 0.999,0 z"
           id="path53"
           inkscape:connector-curvature="0"
           style="fill:#ed1c24" /><path
           d="m 75.867,19.552 c -0.246,0 -0.455,-0.006 -0.664,0.005 -0.04,0.002 -0.095,0.063 -0.111,0.109 -0.02,0.054 -0.012,0.121 -0.006,0.182 0.016,0.146 -0.035,0.211 -0.192,0.204 -0.238,-0.01 -0.476,-0.007 -0.714,-0.001 -0.121,0.003 -0.17,-0.04 -0.167,-0.166 0.008,-0.286 -0.002,-0.572 0.007,-0.857 0.01,-0.313 0.149,-0.454 0.46,-0.488 0.027,-0.003 0.054,-0.005 0.082,-0.005 1.246,0 2.491,-0.004 3.737,0.002 0.437,0.002 0.587,0.158 0.601,0.594 0.008,0.252 0.008,0.504 -0.003,0.755 -0.002,0.055 -0.064,0.153 -0.101,0.154 -0.317,0.012 -0.635,0.007 -0.947,0.007 -0.015,-0.044 -0.025,-0.063 -0.026,-0.082 -0.033,-0.415 -0.033,-0.415 -0.45,-0.415 -0.007,0 -0.014,0 -0.02,0 -0.312,0 -0.312,0 -0.312,0.305 0,1.314 0,2.627 0,3.941 0,0.081 0,0.161 0,0.256 -0.397,0 -0.774,0 -1.173,0 -10e-4,-1.491 -10e-4,-2.978 -10e-4,-4.5 z"
           id="path55"
           inkscape:connector-curvature="0"
           style="fill:#ed1c24" /></g></g></g></svg>