<?xml version="1.0" encoding="UTF-8" standalone="no"?>
<!-- Generator: Adobe Illustrator 22.1.0, SVG Export Plug-In . SVG Version: 6.00 Build 0)  -->

<svg
   xmlns:dc="http://purl.org/dc/elements/1.1/"
   xmlns:cc="http://creativecommons.org/ns#"
   xmlns:rdf="http://www.w3.org/1999/02/22-rdf-syntax-ns#"
   xmlns:svg="http://www.w3.org/2000/svg"
   xmlns="http://www.w3.org/2000/svg"
   xmlns:sodipodi="http://sodipodi.sourceforge.net/DTD/sodipodi-0.dtd"
   xmlns:inkscape="http://www.inkscape.org/namespaces/inkscape"
   version="1.2"
   id="Слой_1"
   x="0px"
   y="0px"
   viewBox="0 0 40 40"
   xml:space="preserve"
   inkscape:version="0.91 r13725"
   sodipodi:docname="icon-advantages-2.svg"
   width="40"
   height="40"><metadata
     id="metadata13"><rdf:RDF><cc:Work
         rdf:about=""><dc:format>image/svg+xml</dc:format><dc:type
           rdf:resource="http://purl.org/dc/dcmitype/StillImage" /><dc:title></dc:title></cc:Work></rdf:RDF></metadata><defs
     id="defs11" /><sodipodi:namedview
     pagecolor="#ffffff"
     bordercolor="#666666"
     borderopacity="1"
     objecttolerance="10"
     gridtolerance="10"
     guidetolerance="10"
     inkscape:pageopacity="0"
     inkscape:pageshadow="2"
     inkscape:window-width="1920"
     inkscape:window-height="1017"
     id="namedview9"
     showgrid="false"
     inkscape:zoom="16.68772"
     inkscape:cx="26.956103"
     inkscape:cy="16.925187"
     inkscape:window-x="-8"
     inkscape:window-y="-8"
     inkscape:window-maximized="1"
     inkscape:current-layer="Слой_1" /><g
     id="g3"
     transform="translate(2.6591673,0)"><path
       d="m 18.253,4.797 0,-3.89 c 0,-0.5 -0.407,-0.908 -0.909,-0.908 -0.18,0 -0.357,0.055 -0.509,0.16 L 9.861,4.932 C 9.616,5.1 9.468,5.377 9.466,5.674 9.464,5.975 9.604,6.247 9.85,6.421 l 6.974,4.918 c 0.155,0.109 0.334,0.167 0.52,0.167 0.501,0 0.909,-0.407 0.909,-0.908 l 0,-3.965 c 8.213,0.482 14.63,7.382 14.63,15.754 0,8.712 -6.969,15.801 -15.536,15.801 C 8.78,38.188 1.811,31.099 1.811,22.387 1.811,21.887 1.405,21.48 0.905,21.48 0.405,21.48 0,21.887 0,22.387 0,32.099 7.781,40 17.347,40 c 9.566,0 17.347,-7.901 17.347,-17.613 0,-9.4 -7.214,-17.108 -16.441,-17.59 z m -6.292,0.894 4.481,-3.065 0,6.224 -4.481,-3.159 z"
       id="path5"
       inkscape:connector-curvature="0"
       style="fill:#444444" /><path
       d="m 8.949,28.874 c 0,0.648 0.527,1.175 1.175,1.175 l 13.446,0 c 0.648,0 1.175,-0.527 1.175,-1.175 l 0,-7.968 0.538,0 0,-5.04 -16.872,0 0,5.04 0.538,0 0,7.968 z m 1.812,-0.637 0,-7.331 12.173,0 0,7.331 -12.173,0 z m 12.71,-10.558 0,1.414 -13.248,0 0,-1.414 13.248,0 z"
       id="path7"
       inkscape:connector-curvature="0"
       style="fill:#444444" /></g></svg>