<?xml version="1.0" encoding="UTF-8" standalone="no"?>
<!-- Generator: Adobe Illustrator 22.1.0, SVG Export Plug-In . SVG Version: 6.00 Build 0)  -->

<svg
   xmlns:dc="http://purl.org/dc/elements/1.1/"
   xmlns:cc="http://creativecommons.org/ns#"
   xmlns:rdf="http://www.w3.org/1999/02/22-rdf-syntax-ns#"
   xmlns:svg="http://www.w3.org/2000/svg"
   xmlns="http://www.w3.org/2000/svg"
   xmlns:sodipodi="http://sodipodi.sourceforge.net/DTD/sodipodi-0.dtd"
   xmlns:inkscape="http://www.inkscape.org/namespaces/inkscape"
   version="1.2"
   id="Слой_1"
   x="0px"
   y="0px"
   viewBox="0 0 40.000001 40"
   xml:space="preserve"
   inkscape:version="0.91 r13725"
   sodipodi:docname="icon-advantages-1.svg"
   width="40"
   height="40"><metadata
     id="metadata13"><rdf:RDF><cc:Work
         rdf:about=""><dc:format>image/svg+xml</dc:format><dc:type
           rdf:resource="http://purl.org/dc/dcmitype/StillImage" /><dc:title></dc:title></cc:Work></rdf:RDF></metadata><defs
     id="defs11" /><sodipodi:namedview
     pagecolor="#ffffff"
     bordercolor="#666666"
     borderopacity="1"
     objecttolerance="10"
     gridtolerance="10"
     guidetolerance="10"
     inkscape:pageopacity="0"
     inkscape:pageshadow="2"
     inkscape:window-width="1920"
     inkscape:window-height="1017"
     id="namedview9"
     showgrid="false"
     inkscape:zoom="16.68772"
     inkscape:cx="15.602214"
     inkscape:cy="17.793938"
     inkscape:window-x="-8"
     inkscape:window-y="-8"
     inkscape:window-maximized="1"
     inkscape:current-layer="Слой_1" /><g
     id="g3"
     transform="translate(0.8988645,0)"><path
       d="m 11.814,38.541 c 0.025,0.01 0.047,0.023 0.074,0.031 0.003,10e-4 0.005,10e-4 0.008,0.002 2.235,0.917 4.679,1.426 7.241,1.426 2.601,0 5.081,-0.523 7.344,-1.467 0.004,-0.001 0.008,-0.001 0.012,-0.003 0.025,-0.008 0.046,-0.02 0.07,-0.029 0.012,-0.005 0.024,-0.01 0.036,-0.015 0.025,-0.012 0.052,-0.021 0.076,-0.034 6.814,-2.932 11.599,-9.711 11.599,-17.588 0,-4.245 -1.361,-8.265 -3.937,-11.626 -0.314,-0.41 -0.902,-0.489 -1.312,-0.174 -0.41,0.315 -0.488,0.902 -0.174,1.312 2.323,3.031 3.55,6.658 3.55,10.488 0,6.774 -3.923,12.647 -9.615,15.473 L 21.579,19.69 22.798,15.836 27.602,18.5 c 0.255,0.141 0.56,0.155 0.827,0.04 0.267,-0.116 0.464,-0.349 0.535,-0.631 L 32.387,4.247 C 32.438,4.044 32.419,3.829 32.333,3.637 L 30.954,0.554 C 30.824,0.263 30.555,0.059 30.241,0.011 30.209,0.006 30.177,0.01 30.145,0.009 30.129,0.005 30.121,0 30.099,0 L 8.148,0 C 8.123,0 8.114,0.005 8.098,0.008 8.068,0.009 8.038,0.006 8.008,0.01 7.693,0.059 7.424,0.263 7.294,0.554 L 5.915,3.636 C 5.83,3.828 5.81,4.043 5.861,4.246 l 3.423,13.662 c 0.071,0.282 0.269,0.515 0.535,0.631 0.119,0.051 0.246,0.077 0.373,0.077 0.157,0 0.313,-0.039 0.454,-0.118 l 4.843,-2.686 1.226,3.878 -5.133,16.694 C 5.838,33.576 1.872,27.675 1.872,20.862 1.872,17.031 3.101,13.403 5.426,10.37 5.74,9.96 5.662,9.372 5.252,9.058 4.842,8.743 4.255,8.821 3.94,9.231 1.362,12.594 0,16.616 0,20.862 0,28.822 4.886,35.66 11.814,38.541 Z M 27.444,16.271 20.979,12.686 27.426,5.38 C 27.44,5.366 27.456,5.355 27.47,5.34 l 2.37,-2.692 0.652,1.458 -3.048,12.165 z m -8.32,-4.312 -5.561,-6.302 11.123,0 -5.562,6.302 z m 8.901,-10.087 -1.688,1.914 -14.421,0 -1.691,-1.914 17.8,0 z M 7.756,4.105 8.409,2.645 17.269,12.685 10.804,16.27 7.756,4.105 Z m 11.368,9.692 2.003,1.111 -1.203,3.805 -1.555,0 -1.21,-3.827 1.965,-1.089 z m -0.749,6.864 1.547,0 5.137,16.421 c -1.848,0.678 -3.843,1.047 -5.922,1.047 -2.042,0 -4.002,-0.359 -5.822,-1.013 l 5.06,-16.455 z"
       id="path5"
       inkscape:connector-curvature="0"
       style="fill:#444444" /><path
       d="m 27.695,25.911 0,-2.146 3.164,0 c 0.517,0 0.936,-0.419 0.936,-0.936 0,-0.517 -0.419,-0.936 -0.936,-0.936 l -4.1,0 c -0.517,0 -0.936,0.419 -0.936,0.936 l 0,3.64 c 0,0.344 0.188,0.659 0.491,0.823 l 3.341,1.807 c 0.139,0.075 0.292,0.113 0.445,0.113 0.153,0 0.307,-0.038 0.445,-0.113 l 3.342,-1.807 c 0.303,-0.164 0.491,-0.48 0.491,-0.823 l 0,-3.64 c 0,-0.517 -0.419,-0.936 -0.936,-0.936 -0.517,0 -0.936,0.419 -0.936,0.936 l 0,3.082 -2.406,1.3 -2.405,-1.3 z"
       id="path7"
       inkscape:connector-curvature="0"
       style="fill:#444444" /></g></svg>