<?xml version="1.0" encoding="utf-8"?>
<!-- Generator: Adobe Illustrator 22.1.0, SVG Export Plug-In . SVG Version: 6.00 Build 0)  -->
<svg version="1.2" baseProfile="tiny" id="Режим_изоляции"
	 xmlns="http://www.w3.org/2000/svg" xmlns:xlink="http://www.w3.org/1999/xlink" x="0px" y="0px" viewBox="0 0 36.111 50"
	 xml:space="preserve">
<g>
	<path fill="#25925E" d="M0.926,50h25.926c0.124,0,0.244-0.025,0.356-0.072c0.112-0.046,0.214-0.115,0.298-0.199l8.333-8.333
		c0.084-0.084,0.153-0.186,0.199-0.298c0.047-0.112,0.072-0.232,0.072-0.356V0.926C36.111,0.415,35.696,0,35.185,0H0.926
		C0.414,0,0,0.415,0,0.926v48.148C0,49.585,0.414,50,0.926,50z M27.778,46.839v-5.172h5.172L27.778,46.839z M1.852,1.852h32.407
		v37.963h-7.407c-0.511,0-0.926,0.415-0.926,0.926v7.407H1.852V1.852z"/>
	<g>
		<path fill="#25925E" d="M16.012,28.375l-0.065-0.856c-0.197-1.778,0.396-3.721,2.041-5.697c1.482-1.745,2.306-3.029,2.306-4.511
			c0-1.679-1.054-2.799-3.128-2.832c-1.186,0-2.503,0.395-3.326,1.021l-0.79-2.074c1.086-0.791,2.963-1.317,4.708-1.317
			c3.787,0,5.499,2.338,5.499,4.841c0,2.239-1.251,3.853-2.831,5.729c-1.449,1.712-1.976,3.161-1.877,4.84l0.032,0.856H16.012z
			 M15.289,32.985c0-1.218,0.822-2.075,1.976-2.075c1.152,0,1.942,0.856,1.942,2.075c0,1.152-0.757,2.042-1.976,2.042
			C16.079,35.027,15.289,34.138,15.289,32.985z"/>
	</g>
</g>
</svg>
