<?xml version="1.0" encoding="UTF-8" standalone="no"?>
<!-- Generator: Adobe Illustrator 22.1.0, SVG Export Plug-In . SVG Version: 6.00 Build 0)  -->

<svg
   xmlns:dc="http://purl.org/dc/elements/1.1/"
   xmlns:cc="http://creativecommons.org/ns#"
   xmlns:rdf="http://www.w3.org/1999/02/22-rdf-syntax-ns#"
   xmlns:svg="http://www.w3.org/2000/svg"
   xmlns="http://www.w3.org/2000/svg"
   xmlns:sodipodi="http://sodipodi.sourceforge.net/DTD/sodipodi-0.dtd"
   xmlns:inkscape="http://www.inkscape.org/namespaces/inkscape"
   version="1.2"
   id="Слой_1"
   x="0px"
   y="0px"
   viewBox="0 0 50 50"
   xml:space="preserve"
   inkscape:version="0.91 r13725"
   sodipodi:docname="icon-loader-2.svg"
   width="50"
   height="50"><metadata
     id="metadata23"><rdf:RDF><cc:Work
         rdf:about=""><dc:format>image/svg+xml</dc:format><dc:type
           rdf:resource="http://purl.org/dc/dcmitype/StillImage" /><dc:title></dc:title></cc:Work></rdf:RDF></metadata><defs
     id="defs21" /><sodipodi:namedview
     pagecolor="#ffffff"
     bordercolor="#666666"
     borderopacity="1"
     objecttolerance="10"
     gridtolerance="10"
     guidetolerance="10"
     inkscape:pageopacity="0"
     inkscape:pageshadow="2"
     inkscape:window-width="1920"
     inkscape:window-height="1017"
     id="namedview19"
     showgrid="false"
     inkscape:zoom="13.350176"
     inkscape:cx="27.41977"
     inkscape:cy="25.55804"
     inkscape:window-x="-8"
     inkscape:window-y="-8"
     inkscape:window-maximized="1"
     inkscape:current-layer="Слой_1" /><g
     id="g3"
     transform="translate(7.7752838,0)"><path
       d="M 35.185,0 9.259,0 C 9.135,0 9.015,0.025 8.903,0.072 8.791,0.119 8.689,0.187 8.605,0.271 L 0.271,8.605 C 0.187,8.689 0.119,8.791 0.072,8.903 0.025,9.015 0,9.135 0,9.259 L 0,49.074 C 0,49.585 0.415,50 0.926,50 l 34.259,0 c 0.512,0 0.926,-0.415 0.926,-0.926 l 0,-48.148 C 36.111,0.415 35.697,0 35.185,0 Z m -26.852,3.161 0,5.172 -5.172,0 5.172,-5.172 z m 25.926,44.987 -32.407,0 0,-37.963 7.407,0 c 0.511,0 0.926,-0.415 0.926,-0.926 l 0,-7.407 24.074,0 0,46.296 z"
       id="path5"
       inkscape:connector-curvature="0"
       style="fill:#25925e" /><path
       d="m 29.63,18.519 -19.445,0 c -0.511,0 -0.926,0.415 -0.926,0.926 0,0.511 0.415,0.926 0.926,0.926 l 19.445,0 c 0.512,0 0.926,-0.415 0.926,-0.926 0,-0.512 -0.414,-0.926 -0.926,-0.926 z"
       id="path7"
       inkscape:connector-curvature="0"
       style="fill:#25925e" /><path
       d="m 23.148,6.019 6.481,0 c 0.512,0 0.926,-0.415 0.926,-0.926 0,-0.511 -0.414,-0.926 -0.926,-0.926 l -6.481,0 c -0.511,0 -0.926,0.415 -0.926,0.926 0,0.511 0.415,0.926 0.926,0.926 z"
       id="path9"
       inkscape:connector-curvature="0"
       style="fill:#25925e" /><path
       d="m 20.37,10.185 9.259,0 c 0.512,0 0.926,-0.415 0.926,-0.926 0,-0.511 -0.414,-0.926 -0.926,-0.926 l -9.259,0 c -0.511,0 -0.926,0.415 -0.926,0.926 0,0.511 0.415,0.926 0.926,0.926 z"
       id="path11"
       inkscape:connector-curvature="0"
       style="fill:#25925e" /><path
       d="m 29.63,25.926 -23.149,0 c -0.511,0 -0.926,0.415 -0.926,0.926 0,0.511 0.415,0.926 0.926,0.926 l 23.149,0 c 0.512,0 0.926,-0.415 0.926,-0.926 0,-0.511 -0.414,-0.926 -0.926,-0.926 z"
       id="path13"
       inkscape:connector-curvature="0"
       style="fill:#25925e" /><path
       d="m 29.63,33.333 -23.149,0 c -0.511,0 -0.926,0.415 -0.926,0.926 0,0.511 0.415,0.926 0.926,0.926 l 23.149,0 c 0.512,0 0.926,-0.415 0.926,-0.926 0,-0.511 -0.414,-0.926 -0.926,-0.926 z"
       id="path15"
       inkscape:connector-curvature="0"
       style="fill:#25925e" /><path
       d="m 29.63,40.741 -23.149,0 c -0.511,0 -0.926,0.415 -0.926,0.926 0,0.511 0.415,0.926 0.926,0.926 l 23.149,0 c 0.512,0 0.926,-0.415 0.926,-0.926 0,-0.511 -0.414,-0.926 -0.926,-0.926 z"
       id="path17"
       inkscape:connector-curvature="0"
       style="fill:#25925e" /></g></svg>