<?xml version="1.0" encoding="UTF-8" standalone="no"?>
<!-- Generator: Adobe Illustrator 22.1.0, SVG Export Plug-In . SVG Version: 6.00 Build 0)  -->

<svg
   xmlns:dc="http://purl.org/dc/elements/1.1/"
   xmlns:cc="http://creativecommons.org/ns#"
   xmlns:rdf="http://www.w3.org/1999/02/22-rdf-syntax-ns#"
   xmlns:svg="http://www.w3.org/2000/svg"
   xmlns="http://www.w3.org/2000/svg"
   xmlns:sodipodi="http://sodipodi.sourceforge.net/DTD/sodipodi-0.dtd"
   xmlns:inkscape="http://www.inkscape.org/namespaces/inkscape"
   version="1.2"
   id="Слой_1"
   x="0px"
   y="0px"
   viewBox="0 0 40 40"
   xml:space="preserve"
   inkscape:version="0.91 r13725"
   sodipodi:docname="icon-advantages-4.svg"
   width="40"
   height="40"><metadata
     id="metadata29"><rdf:RDF><cc:Work
         rdf:about=""><dc:format>image/svg+xml</dc:format><dc:type
           rdf:resource="http://purl.org/dc/dcmitype/StillImage" /><dc:title></dc:title></cc:Work></rdf:RDF></metadata><defs
     id="defs27" /><sodipodi:namedview
     pagecolor="#ffffff"
     bordercolor="#666666"
     borderopacity="1"
     objecttolerance="10"
     gridtolerance="10"
     guidetolerance="10"
     inkscape:pageopacity="0"
     inkscape:pageshadow="2"
     inkscape:window-width="1920"
     inkscape:window-height="1017"
     id="namedview25"
     showgrid="false"
     inkscape:zoom="11.8"
     inkscape:cx="18.007153"
     inkscape:cy="18.319374"
     inkscape:window-x="-8"
     inkscape:window-y="-8"
     inkscape:window-maximized="1"
     inkscape:current-layer="Слой_1" /><g
     id="g3"
     transform="translate(1.4067794,0)"><path
       d="m 25.308,28.06 c 0.421,0 0.762,-0.342 0.762,-0.763 l 0,-7.96 c 0,-0.421 -0.341,-0.763 -0.762,-0.763 l -13.268,0 c -0.421,0 -0.762,0.343 -0.762,0.763 l 0,11.941 c 0,0.31 0.185,0.587 0.469,0.705 0.091,0.038 0.19,0.058 0.292,0.058 0.201,0 0.398,-0.082 0.539,-0.223 l 3.716,-3.757 9.014,0 z m -9.827,-1.302 -2.679,2.679 0,-9.337 11.742,0 0,6.434 -8.524,0 c -0.201,0 -0.398,0.082 -0.539,0.224 z"
       id="path5"
       inkscape:connector-curvature="0"
       style="fill:#444444" /><path
       d="m 16.02,22.753 5.308,0 c 0.421,0 0.762,-0.342 0.762,-0.763 0,-0.421 -0.341,-0.763 -0.762,-0.763 l -5.308,0 c -0.421,0 -0.762,0.342 -0.762,0.763 0,0.421 0.341,0.763 0.762,0.763 z"
       id="path7"
       inkscape:connector-curvature="0"
       style="fill:#444444" /><path
       d="m 22.654,23.881 -7.96,0 c -0.421,0 -0.763,0.342 -0.763,0.763 0,0.421 0.342,0.763 0.763,0.763 l 7.96,0 c 0.421,0 0.763,-0.343 0.763,-0.763 0,-0.42 -0.342,-0.763 -0.763,-0.763 z"
       id="path9"
       inkscape:connector-curvature="0"
       style="fill:#444444" /><path
       d="m 6.069,23.218 -2.652,0 c -0.421,0 -0.763,0.342 -0.763,0.763 0,0.421 0.342,0.763 0.763,0.763 l 2.653,0 c 0.421,0 0.763,-0.342 0.763,-0.763 C 6.832,23.56 6.49,23.218 6.069,23.218 Z"
       id="path11"
       inkscape:connector-curvature="0"
       style="fill:#444444" /><path
       d="m 6.069,19.901 -2.652,0 c -0.421,0 -0.763,0.342 -0.763,0.763 0,0.421 0.342,0.763 0.763,0.763 l 2.653,0 c 0.421,0 0.763,-0.343 0.763,-0.763 0,-0.42 -0.343,-0.763 -0.764,-0.763 z"
       id="path13"
       inkscape:connector-curvature="0"
       style="fill:#444444" /><path
       d="m 6.069,26.534 -2.652,0 c -0.421,0 -0.763,0.343 -0.763,0.763 0,0.421 0.342,0.763 0.763,0.763 l 2.653,0 c 0.421,0 0.763,-0.342 0.763,-0.763 C 6.832,26.877 6.49,26.534 6.069,26.534 Z"
       id="path15"
       inkscape:connector-curvature="0"
       style="fill:#444444" /><path
       d="m 35.456,15.921 -0.763,0 0,-0.564 C 34.693,7.033 27.358,0 18.674,0 9.99,0 2.654,7.033 2.654,15.357 l 0,0.564 -0.763,0 C 0.848,15.921 0,16.77 0,17.812 l 0,12.337 c 0,1.043 0.848,1.891 1.891,1.891 l 5.704,0 c 1.043,0 1.891,-0.849 1.891,-1.891 l 0,-12.337 c 0,-1.043 -0.848,-1.891 -1.891,-1.891 l -0.763,0 0,-0.564 c 0,-5.955 5.534,-11.178 11.841,-11.178 6.307,0 11.841,5.223 11.841,11.178 l 0,0.564 -0.763,0 c -1.043,0 -1.891,0.849 -1.891,1.891 l 0,12.337 c 0,1.043 0.848,1.891 1.891,1.891 l 2.089,0 0,0.564 c 0,2.14 -1.741,3.881 -3.881,3.881 l -5.325,0 c -0.34,-1.176 -1.413,-1.99 -2.635,-1.99 l -2.653,0 c -1.518,0 -2.753,1.235 -2.753,2.753 0,1.518 1.236,2.752 2.754,2.752 L 20,40 c 1.222,0 2.295,-0.814 2.635,-1.99 l 5.325,0 c 2.981,0 5.407,-2.424 5.407,-5.406 l 0,-0.564 2.089,0 c 1.043,0 1.891,-0.849 1.891,-1.891 l 0,-12.337 c 0,-1.042 -0.848,-1.891 -1.891,-1.891 z m -6.069,1.891 c 0,-0.202 0.164,-0.365 0.365,-0.365 l 5.704,0 c 0.201,0 0.365,0.164 0.365,0.365 l 0,12.337 c 0,0.202 -0.164,0.365 -0.365,0.365 l -5.704,0 c -0.201,0 -0.365,-0.164 -0.365,-0.365 l 0,-12.337 z M 7.96,30.149 c 0,0.202 -0.164,0.365 -0.365,0.365 l -5.704,0 c -0.201,0 -0.365,-0.164 -0.365,-0.365 l 0,-12.337 c 0,-0.202 0.164,-0.365 0.365,-0.365 l 5.704,0 c 0.201,0 0.365,0.164 0.365,0.365 l 0,12.337 z m -2.652,-14.792 0,0.564 -1.13,0 0,-0.564 c 0,-7.497 6.638,-13.831 14.495,-13.831 7.857,0 14.496,6.334 14.496,13.831 l 0,0.564 -1.129,0 0,-0.564 C 32.04,8.471 25.919,2.653 18.674,2.653 11.429,2.653 5.308,8.471 5.308,15.357 Z M 20,38.475 l -2.653,0 c -0.677,0 -1.228,-0.551 -1.228,-1.227 0,-0.677 0.551,-1.228 1.228,-1.228 l 2.653,0 c 0.677,0 1.228,0.551 1.228,1.228 0,0.676 -0.551,1.227 -1.228,1.227 z"
       id="path17"
       inkscape:connector-curvature="0"
       style="fill:#444444" /><path
       d="m 31.278,24.743 2.653,0 c 0.421,0 0.763,-0.342 0.763,-0.763 0,-0.421 -0.342,-0.763 -0.763,-0.763 l -2.653,0 c -0.421,0 -0.763,0.342 -0.763,0.763 0,0.421 0.342,0.763 0.763,0.763 z"
       id="path19"
       inkscape:connector-curvature="0"
       style="fill:#444444" /><path
       d="m 31.278,21.427 2.653,0 c 0.421,0 0.763,-0.343 0.763,-0.763 0,-0.42 -0.342,-0.763 -0.763,-0.763 l -2.653,0 c -0.421,0 -0.763,0.342 -0.763,0.763 0,0.421 0.342,0.763 0.763,0.763 z"
       id="path21"
       inkscape:connector-curvature="0"
       style="fill:#444444" /><path
       d="m 31.278,28.06 2.653,0 c 0.421,0 0.763,-0.342 0.763,-0.763 0,-0.421 -0.342,-0.763 -0.763,-0.763 l -2.653,0 c -0.421,0 -0.763,0.343 -0.763,0.763 0,0.421 0.342,0.763 0.763,0.763 z"
       id="path23"
       inkscape:connector-curvature="0"
       style="fill:#444444" /></g></svg>