<?xml version="1.0" encoding="UTF-8" standalone="no"?>
<!-- Generator: Adobe Illustrator 22.1.0, SVG Export Plug-In . SVG Version: 6.00 Build 0)  -->

<svg
   xmlns:dc="http://purl.org/dc/elements/1.1/"
   xmlns:cc="http://creativecommons.org/ns#"
   xmlns:rdf="http://www.w3.org/1999/02/22-rdf-syntax-ns#"
   xmlns:svg="http://www.w3.org/2000/svg"
   xmlns="http://www.w3.org/2000/svg"
   xmlns:sodipodi="http://sodipodi.sourceforge.net/DTD/sodipodi-0.dtd"
   xmlns:inkscape="http://www.inkscape.org/namespaces/inkscape"
   version="1.2"
   id="Слой_1"
   x="0px"
   y="0px"
   viewBox="0 0 37.000002 37"
   xml:space="preserve"
   inkscape:version="0.91 r13725"
   sodipodi:docname="icon-payment-3.svg"
   width="37"
   height="37"><metadata
     id="metadata17"><rdf:RDF><cc:Work
         rdf:about=""><dc:format>image/svg+xml</dc:format><dc:type
           rdf:resource="http://purl.org/dc/dcmitype/StillImage" /><dc:title></dc:title></cc:Work></rdf:RDF></metadata><defs
     id="defs15" /><sodipodi:namedview
     pagecolor="#ffffff"
     bordercolor="#666666"
     borderopacity="1"
     objecttolerance="10"
     gridtolerance="10"
     guidetolerance="10"
     inkscape:pageopacity="0"
     inkscape:pageshadow="2"
     inkscape:window-width="1920"
     inkscape:window-height="1017"
     id="namedview13"
     showgrid="false"
     fit-margin-top="0"
     fit-margin-left="0"
     fit-margin-right="0"
     fit-margin-bottom="0"
     inkscape:zoom="10.488889"
     inkscape:cx="21.301742"
     inkscape:cy="9.8678262"
     inkscape:window-x="-8"
     inkscape:window-y="-8"
     inkscape:window-maximized="1"
     inkscape:current-layer="Слой_1" /><g
     id="g3"
     transform="matrix(0.41110883,0,0,0.41110883,3.5254242,2.0555442e-4)"><path
       d="m 46.939,50.712 c 0,-1.142 -0.926,-2.068 -2.068,-2.068 l -29.362,0 c -1.142,0 -2.068,0.926 -2.068,2.068 0,1.142 0.926,2.068 2.068,2.068 l 29.363,0 c 1.141,-10e-4 2.067,-0.926 2.067,-2.068 z"
       id="path5"
       inkscape:connector-curvature="0"
       style="fill:#444444" /><path
       d="M 57.899,2.325 C 56.424,1.64 54.684,1.882 53.453,2.945 L 48.904,6.977 42.287,1.084 c -1.565,-1.384 -3.915,-1.384 -5.48,0 L 30.19,7.081 23.47,1.084 c -1.58,-1.446 -4.003,-1.446 -5.583,0 L 11.373,7.081 6.824,3.049 C 5.088,1.564 2.478,1.767 0.993,3.503 0.361,4.241 0.01,5.179 0,6.15 L 0,77.696 C 0,84.451 5.445,89.943 12.2,90 l 48.387,0 c 6.633,-0.223 11.894,-5.667 11.89,-12.303 l 0,-2.481 c 0,-3.426 -2.777,-6.203 -6.203,-6.203 l -5.894,0 0,-62.863 C 60.394,4.493 59.417,2.988 57.899,2.325 Z M 12.2,85.864 c -4.511,0 -8.168,-3.657 -8.168,-8.168 l 0,0 0,-71.546 4.549,4.032 c 1.565,1.384 3.915,1.384 5.48,0 l 6.617,-5.997 6.617,5.997 c 1.565,1.384 3.915,1.384 5.48,0 l 6.617,-5.997 6.617,5.997 c 1.565,1.384 3.915,1.384 5.48,0 l 4.549,-4.032 0,62.861 -29.467,0 c -3.426,0 -6.203,2.777 -6.203,6.203 l 0,2.481 c 0,4.513 -3.657,8.169 -8.168,8.169 l 0,0 z M 66.273,73.147 c 1.142,0 2.068,0.926 2.068,2.068 l 0,2.481 c 0,4.511 -3.657,8.168 -8.168,8.168 l 0,0 -38.771,0 c 1.998,-2.251 3.102,-5.157 3.102,-8.168 l 0,-2.481 c 0,-1.142 0.926,-2.068 2.068,-2.068 l 39.701,0 z"
       id="path7"
       inkscape:connector-curvature="0"
       style="fill:#444444" /><path
       d="m 28.846,36.444 c -1.279,0.122 -2.423,-0.794 -2.585,-2.068 l -0.207,-1.034 -4.653,1.241 0.31,1.034 c 0.486,2.608 2.552,4.633 5.17,5.066 l 0,2.171 3.722,0 0,-2.275 c 1.426,-0.217 2.738,-0.909 3.722,-1.964 1.056,-1.194 1.611,-2.749 1.551,-4.342 0.034,-1.046 -0.216,-2.083 -0.724,-2.998 l 0,0 c -0.508,-0.823 -1.22,-1.5 -2.068,-1.964 -1.028,-0.568 -2.1,-1.052 -3.205,-1.447 -0.804,-0.235 -1.57,-0.583 -2.275,-1.034 -0.222,-0.215 -0.336,-0.519 -0.31,-0.827 -0.018,-0.388 0.133,-0.765 0.414,-1.034 0.307,-0.286 0.718,-0.435 1.137,-0.414 0.62,0 1.447,0.207 2.171,1.861 l 0.414,0.931 4.136,-1.654 -0.31,-0.931 c -0.62,-2.123 -2.377,-3.72 -4.549,-4.136 l 0,-2.378 -3.825,0 0,2.275 c -1.391,0.221 -2.646,0.96 -3.515,2.068 -0.828,1.141 -1.263,2.519 -1.241,3.929 -0.029,1.046 0.221,2.081 0.724,2.998 0.471,0.816 1.149,1.493 1.964,1.964 0.952,0.548 1.956,0.998 2.998,1.344 0.876,0.263 1.711,0.646 2.481,1.137 0.277,0.228 0.43,0.573 0.414,0.931 0.022,0.419 -0.127,0.83 -0.414,1.137 -0.408,0.324 -0.929,0.473 -1.447,0.413 z"
       id="path9"
       inkscape:connector-curvature="0"
       style="fill:#444444" /><path
       d="m 38.668,58.983 -16.956,0 c -1.142,0 -2.068,0.926 -2.068,2.068 0,1.142 0.926,2.068 2.068,2.068 l 16.956,0 c 1.142,0 2.068,-0.926 2.068,-2.068 0,-1.142 -0.926,-2.068 -2.068,-2.068 z"
       id="path11"
       inkscape:connector-curvature="0"
       style="fill:#444444" /></g></svg>