<?xml version="1.0" encoding="utf-8"?>
<!-- Generator: Adobe Illustrator 22.1.0, SVG Export Plug-In . SVG Version: 6.00 Build 0)  -->
<svg version="1.2" baseProfile="tiny" id="Слой_1"
	 xmlns="http://www.w3.org/2000/svg" xmlns:xlink="http://www.w3.org/1999/xlink" x="0px" y="0px" viewBox="0 0 40 40"
	 xml:space="preserve">
<g>
	<path fill="#444444" d="M14.167,32.5h-0.833v-5.977c0.002-0.663-0.262-1.3-0.732-1.767L10,22.155V17.5
		c-0.004-1.056-0.671-1.995-1.667-2.347v-6.82H12.5c1.381,0,2.5-1.119,2.5-2.5V1.667h19.167C34.627,1.667,35,2.04,35,2.5v15h1.667
		v-15c0-1.381-1.119-2.5-2.5-2.5h-20c-0.221,0-0.433,0.088-0.589,0.244L6.911,6.911C6.754,7.067,6.666,7.279,6.667,7.5v4.167H5.833
		c-0.221,0-0.433,0.088-0.589,0.244l-5,5C0.088,17.067,0,17.279,0,17.5V25c-0.001,0.146,0.037,0.29,0.11,0.417l3.223,5.638V32.5H2.5
		c-0.46,0-0.833,0.373-0.833,0.833v5.833C1.667,39.627,2.04,40,2.5,40h11.667C14.627,40,15,39.627,15,39.166v-5.833
		C15,32.873,14.627,32.5,14.167,32.5z M12.5,6.667H9.512l3.822-3.822v2.988C13.333,6.294,12.96,6.667,12.5,6.667z M4.89,30.416
		l-3.223-5.638v-6.933l4.512-4.512h0.488v1.82C5.671,15.505,5.004,16.444,5,17.5v4.655l-1.422,1.422l1.178,1.178l1.667-1.667
		c0.156-0.156,0.244-0.368,0.244-0.589v-5c0-0.46,0.373-0.833,0.833-0.833S8.333,17.04,8.333,17.5v5
		c0,0.221,0.088,0.433,0.244,0.589l2.845,2.845c0.156,0.157,0.243,0.368,0.244,0.589V32.5H5v-1.667
		C5.001,30.687,4.963,30.543,4.89,30.416z M13.333,38.333h-10v-4.167h10V38.333z"/>
	<path fill="#444444" d="M33.333,7.5V5.833c0-1.381-1.119-2.5-2.5-2.5h-1.667V5h1.667c0.46,0,0.833,0.373,0.833,0.833V7.5H33.333z"
		/>
	<rect x="25.833" y="3.333" fill="#444444" width="1.667" height="1.667"/>
	<path fill="#444444" d="M40,25.833c0.009-4.142-3.342-7.507-7.484-7.516c-4.142-0.009-7.507,3.342-7.516,7.484
		c-0.005,2.14,0.905,4.18,2.5,5.606v7.759c0,0.46,0.373,0.833,0.833,0.834c0.189,0,0.373-0.064,0.521-0.183L32.5,36.9l3.646,2.917
		c0.359,0.288,0.884,0.23,1.171-0.13c0.118-0.148,0.183-0.331,0.183-0.52v-7.759C39.089,29.99,39.998,27.962,40,25.833z
		 M26.666,25.833c0-3.222,2.612-5.833,5.833-5.833c3.222,0,5.833,2.612,5.833,5.833s-2.612,5.833-5.833,5.833
		C29.28,31.663,26.67,29.053,26.666,25.833z M35.833,37.432l-2.812-2.25c-0.304-0.244-0.737-0.244-1.042,0l-2.812,2.25v-4.891
		c2.097,1.055,4.57,1.055,6.667,0V37.432z"/>
	<path fill="#444444" d="M31.666,28.333c0.221,0,0.433-0.088,0.589-0.244l3.333-3.333l-1.178-1.178l-2.744,2.744l-1.077-1.077
		l-1.178,1.178l1.667,1.667C31.234,28.245,31.445,28.333,31.666,28.333z"/>
	<rect x="16.667" y="38.333" fill="#444444" width="9.167" height="1.667"/>
	<rect x="15" y="10.833" fill="#444444" width="16.667" height="1.667"/>
	<rect x="11.667" y="14.167" fill="#444444" width="20" height="1.667"/>
	<rect x="11.667" y="17.5" fill="#444444" width="15" height="1.667"/>
	<rect x="11.667" y="20.833" fill="#444444" width="11.667" height="1.667"/>
	<rect x="11.667" y="10.833" fill="#444444" width="1.667" height="1.667"/>
	<path fill="#444444" d="M25,31.666V30h-7.5c-0.46,0-0.833-0.373-0.833-0.833v-2.5c0-0.46,0.373-0.833,0.833-0.833h5.833v-1.667
		H17.5c-1.381,0-2.5,1.119-2.5,2.5v2.5c0,1.381,1.119,2.5,2.5,2.5H25z"/>
</g>
</svg>
