<?xml version="1.0" encoding="UTF-8" standalone="no"?>
<!-- Generator: Adobe Illustrator 22.1.0, SVG Export Plug-In . SVG Version: 6.00 Build 0)  -->

<svg
   xmlns:dc="http://purl.org/dc/elements/1.1/"
   xmlns:cc="http://creativecommons.org/ns#"
   xmlns:rdf="http://www.w3.org/1999/02/22-rdf-syntax-ns#"
   xmlns:svg="http://www.w3.org/2000/svg"
   xmlns="http://www.w3.org/2000/svg"
   xmlns:sodipodi="http://sodipodi.sourceforge.net/DTD/sodipodi-0.dtd"
   xmlns:inkscape="http://www.inkscape.org/namespaces/inkscape"
   version="1.2"
   id="Слой_1"
   x="0px"
   y="0px"
   viewBox="0 0 37.000001 37"
   xml:space="preserve"
   inkscape:version="0.91 r13725"
   sodipodi:docname="icon-payment-2.svg"
   width="37"
   height="37"><metadata
     id="metadata11"><rdf:RDF><cc:Work
         rdf:about=""><dc:format>image/svg+xml</dc:format><dc:type
           rdf:resource="http://purl.org/dc/dcmitype/StillImage" /><dc:title></dc:title></cc:Work></rdf:RDF></metadata><defs
     id="defs9" /><sodipodi:namedview
     pagecolor="#ffffff"
     bordercolor="#666666"
     borderopacity="1"
     objecttolerance="10"
     gridtolerance="10"
     guidetolerance="10"
     inkscape:pageopacity="0"
     inkscape:pageshadow="2"
     inkscape:window-width="1920"
     inkscape:window-height="1017"
     id="namedview7"
     showgrid="false"
     fit-margin-top="0"
     fit-margin-left="0"
     fit-margin-right="0"
     fit-margin-bottom="0"
     inkscape:zoom="10.488889"
     inkscape:cx="14.820055"
     inkscape:cy="17.529021"
     inkscape:window-x="-8"
     inkscape:window-y="-8"
     inkscape:window-maximized="1"
     inkscape:current-layer="Слой_1" /><g
     id="g3"
     transform="matrix(0.41110875,0,0,0.41110875,0.66737454,2.1213677e-4)"><path
       d="M 23.509,25.791 66.594,15.243 c 5.56,-1.359 11.168,2.046 12.528,7.605 0.036,0.148 0.069,0.298 0.099,0.448 0.256,1.258 -0.556,2.485 -1.814,2.741 -1.258,0.256 -2.485,-0.556 -2.742,-1.814 -0.616,-3.101 -3.629,-5.115 -6.73,-4.499 -0.083,0.016 -0.165,0.035 -0.246,0.055 l -43.076,10.52 c -1.245,0.305 -2.502,-0.457 -2.806,-1.702 -0.305,-1.245 0.457,-2.502 1.702,-2.806 z M 53.494,0.342 C 50.758,-0.383 47.845,0.054 45.441,1.548 l -38.26,23.62 c -1.108,0.643 -1.486,2.062 -0.843,3.17 0.643,1.108 2.062,1.486 3.17,0.843 0.038,-0.022 0.076,-0.046 0.113,-0.07 L 47.872,5.501 c 2.691,-1.66 6.217,-0.824 7.877,1.867 0.045,0.073 0.088,0.146 0.129,0.221 0.623,1.12 2.035,1.522 3.154,0.9 1.12,-0.623 1.522,-2.035 0.9,-3.154 C 58.566,2.854 56.236,1.047 53.494,0.342 Z m 0.714,61.139 c 0,6.097 -4.943,11.04 -11.04,11.04 -6.097,0 -11.04,-4.943 -11.04,-11.04 0,-6.097 4.943,-11.04 11.04,-11.04 6.095,0.005 11.035,4.945 11.04,11.04 z m -4.638,0 c 0,-3.535 -2.866,-6.401 -6.401,-6.401 -3.535,0 -6.401,2.866 -6.401,6.401 0,3.535 2.866,6.401 6.401,6.401 3.532,-0.005 6.395,-2.868 6.401,-6.401 z m 36.766,-18.239 0,36.488 C 86.326,85.398 81.734,89.99 76.066,90 L 10.27,90 C 4.602,89.99 0.01,85.398 0,79.73 L 0,43.242 C -0.005,37.563 4.591,32.954 10.27,32.944 l 65.796,0 c 5.679,0.01 10.275,4.619 10.27,10.298 z m -4.639,0 c 0.01,-3.115 -2.507,-5.649 -5.622,-5.659 -0.003,0 -0.006,0 -0.009,0 l -65.796,0 c -3.115,0.005 -5.637,2.535 -5.631,5.65 0,0.003 0,0.006 0,0.009 l 0,36.488 c 0.005,3.108 2.523,5.626 5.631,5.631 l 65.796,0 c 3.108,-0.005 5.626,-2.523 5.631,-5.631 l 0,-36.488 z m -4.481,13.619 0,9.277 c -10e-4,1.84 -1.183,3.472 -2.932,4.045 -4.074,1.357 -7.147,4.739 -8.109,8.925 -0.239,1.058 -1.179,1.81 -2.264,1.809 l -41.487,0 C 21.339,80.918 20.399,80.166 20.16,79.108 19.112,74.487 15.504,70.878 10.883,69.831 9.825,69.592 9.073,68.652 9.074,67.567 l 0,-12.172 c -10e-4,-1.085 0.751,-2.025 1.809,-2.264 4.621,-1.048 8.23,-4.656 9.277,-9.277 0.239,-1.058 1.179,-1.81 2.264,-1.809 l 41.489,0 c 1.096,0.003 2.04,0.773 2.264,1.846 0.961,4.186 4.034,7.568 8.109,8.925 1.747,0.573 2.93,2.205 2.93,4.045 z m -4.638,0.278 C 67.708,55.43 63.878,51.6 62.169,46.73 l -38.038,0 c -1.702,4.862 -5.517,8.69 -10.372,10.409 l 0,8.693 c 4.87,1.71 8.699,5.54 10.409,10.409 l 38.038,0 c 1.701,-4.862 5.516,-8.691 10.372,-10.409 l 0,-8.693 z"
       id="path5"
       inkscape:connector-curvature="0"
       style="fill:#444444" /></g></svg>