<?xml version="1.0" encoding="UTF-8" standalone="no"?>
<!-- Generator: Adobe Illustrator 22.1.0, SVG Export Plug-In . SVG Version: 6.00 Build 0)  -->

<svg
   xmlns:dc="http://purl.org/dc/elements/1.1/"
   xmlns:cc="http://creativecommons.org/ns#"
   xmlns:rdf="http://www.w3.org/1999/02/22-rdf-syntax-ns#"
   xmlns:svg="http://www.w3.org/2000/svg"
   xmlns="http://www.w3.org/2000/svg"
   xmlns:sodipodi="http://sodipodi.sourceforge.net/DTD/sodipodi-0.dtd"
   xmlns:inkscape="http://www.inkscape.org/namespaces/inkscape"
   version="1.2"
   id="Слой_1"
   x="0px"
   y="0px"
   viewBox="0 0 40 40"
   xml:space="preserve"
   inkscape:version="0.91 r13725"
   sodipodi:docname="icon-advantages-3.svg"
   width="40"
   height="40"><metadata
     id="metadata23"><rdf:RDF><cc:Work
         rdf:about=""><dc:format>image/svg+xml</dc:format><dc:type
           rdf:resource="http://purl.org/dc/dcmitype/StillImage" /><dc:title></dc:title></cc:Work></rdf:RDF></metadata><defs
     id="defs21" /><sodipodi:namedview
     pagecolor="#ffffff"
     bordercolor="#666666"
     borderopacity="1"
     objecttolerance="10"
     gridtolerance="10"
     guidetolerance="10"
     inkscape:pageopacity="0"
     inkscape:pageshadow="2"
     inkscape:window-width="1920"
     inkscape:window-height="1017"
     id="namedview19"
     showgrid="false"
     inkscape:zoom="7.275"
     inkscape:cx="20"
     inkscape:cy="12.17"
     inkscape:window-x="-8"
     inkscape:window-y="-8"
     inkscape:window-maximized="1"
     inkscape:current-layer="Слой_1" /><g
     id="g3"
     transform="translate(0,7.66)"><path
       d="m 10.283,1.462 3.349,0 c 0.377,0 0.708,-0.33 0.708,-0.708 0,-0.378 -0.33,-0.708 -0.708,-0.708 l -3.349,0 c -0.377,0 -0.708,0.33 -0.708,0.708 0,0.378 0.331,0.708 0.708,0.708 z"
       id="path5"
       inkscape:connector-curvature="0"
       style="fill:#444444" /><path
       d="M 39.528,11.415 35.943,5.802 C 35.566,5.189 34.905,4.811 34.151,4.811 l -5,0 0,-2.688 C 29.151,0.943 28.208,0 27.028,0 L 16.462,0 c -0.377,0 -0.708,0.33 -0.708,0.708 0,0.378 0.33,0.708 0.708,0.708 l 10.566,0 c 0.377,0 0.708,0.33 0.708,0.708 l 0,16.934 -13.868,0 c -0.613,-1.038 -1.745,-1.792 -3.066,-1.792 -1.321,0 -2.453,0.708 -3.066,1.792 l -1.745,0 c -0.377,0 -0.708,-0.33 -0.708,-0.708 l 0,-2.453 c 0,-0.377 -0.33,-0.708 -0.708,-0.708 -0.377,0 -0.708,0.33 -0.708,0.708 l 0,2.453 c 0,1.179 0.943,2.123 2.123,2.123 l 1.274,0 c 0,0.094 0,0.236 0,0.33 0,1.934 1.604,3.538 3.538,3.538 1.934,0 3.538,-1.604 3.538,-3.538 0,-0.094 0,-0.236 0,-0.33 l 14.151,0 c 0,0 0,0 0.047,0 0,0 0,0 0.047,0 l 0.566,0 c 0,0.094 0,0.236 0,0.33 0,1.934 1.604,3.538 3.538,3.538 1.934,0 3.538,-1.604 3.538,-3.538 0,-0.094 0,-0.236 0,-0.33 l 1.651,0 c 1.179,0 2.123,-0.943 2.123,-2.123 l 0,-5.755 C 39.906,12.17 39.764,11.792 39.528,11.415 Z M 10.802,22.972 c -1.179,0 -2.123,-0.943 -2.123,-2.123 0,-1.179 0.943,-2.123 2.123,-2.123 0.849,0 1.557,0.472 1.887,1.179 0,0.094 0.047,0.236 0.142,0.33 0.047,0.189 0.094,0.425 0.094,0.613 0,1.18 -0.944,2.124 -2.123,2.124 z m 21.792,0 c -1.179,0 -2.123,-0.943 -2.123,-2.123 0,-1.179 0.943,-2.123 2.123,-2.123 1.179,0 2.123,0.943 2.123,2.123 0,1.179 -0.943,2.123 -2.123,2.123 z m 5.897,-4.576 c 0,0.377 -0.33,0.708 -0.708,0.708 l -2.075,0 c -0.613,-1.038 -1.745,-1.792 -3.066,-1.792 -1.321,0 -2.453,0.708 -3.066,1.792 l -0.33,0 0,-12.83 4.953,0 c 0.236,0 0.472,0.142 0.613,0.33 l 3.538,5.613 c 0.094,0.094 0.094,0.236 0.094,0.377 l 0,5.802 0.047,0 z"
       id="path7"
       inkscape:connector-curvature="0"
       style="fill:#444444" /><path
       d="M 33.726,7.642 C 33.584,7.453 33.349,7.312 33.113,7.312 l -1.981,0 c -0.377,0 -0.708,0.33 -0.708,0.708 l 0,4.245 c 0,0.377 0.33,0.708 0.708,0.708 l 4.67,0 0,0 c 0.377,0 0.708,-0.33 0.708,-0.708 0,-0.189 -0.047,-0.33 -0.189,-0.472 L 33.726,7.642 Z m -1.839,3.915 0,-2.83 0.849,0 1.792,2.83 -2.641,0 z"
       id="path9"
       inkscape:connector-curvature="0"
       style="fill:#444444" /><path
       d="m 1.934,4.151 14.481,0 c 0.377,0 0.708,-0.33 0.708,-0.708 0,-0.378 -0.33,-0.708 -0.708,-0.708 l -14.481,0 c -0.377,0 -0.708,0.33 -0.708,0.708 0,0.378 0.283,0.708 0.708,0.708 z"
       id="path11"
       inkscape:connector-curvature="0"
       style="fill:#444444" /><path
       d="m 5.66,11.462 c 0,0.377 0.33,0.708 0.708,0.708 l 14.481,0 c 0.377,0 0.708,-0.33 0.708,-0.708 0,-0.377 -0.33,-0.708 -0.708,-0.708 l -14.481,0 C 5.991,10.755 5.66,11.085 5.66,11.462 Z"
       id="path13"
       inkscape:connector-curvature="0"
       style="fill:#444444" /><path
       d="m 4.104,11.462 c 0,-0.377 -0.33,-0.708 -0.708,-0.708 l -2.688,0 C 0.33,10.755 0,11.085 0,11.462 0,11.839 0.33,12.17 0.708,12.17 l 2.689,0 c 0.377,0 0.707,-0.283 0.707,-0.708 z"
       id="path15"
       inkscape:connector-curvature="0"
       style="fill:#444444" /><path
       d="m 14.953,8.302 c 0.377,0 0.708,-0.33 0.708,-0.708 0,-0.377 -0.33,-0.708 -0.708,-0.708 l -7.359,0 c -0.377,0 -0.708,0.33 -0.708,0.708 0,0.377 0.33,0.708 0.708,0.708 l 7.359,0 z"
       id="path17"
       inkscape:connector-curvature="0"
       style="fill:#444444" /></g></svg>