<?xml version="1.0" encoding="UTF-8" standalone="no"?>
<!-- Generator: Adobe Illustrator 22.1.0, SVG Export Plug-In . SVG Version: 6.00 Build 0)  -->

<svg
   xmlns:dc="http://purl.org/dc/elements/1.1/"
   xmlns:cc="http://creativecommons.org/ns#"
   xmlns:rdf="http://www.w3.org/1999/02/22-rdf-syntax-ns#"
   xmlns:svg="http://www.w3.org/2000/svg"
   xmlns="http://www.w3.org/2000/svg"
   xmlns:sodipodi="http://sodipodi.sourceforge.net/DTD/sodipodi-0.dtd"
   xmlns:inkscape="http://www.inkscape.org/namespaces/inkscape"
   version="1.2"
   id="Слой_1"
   x="0px"
   y="0px"
   viewBox="0 0 40 40"
   xml:space="preserve"
   inkscape:version="0.91 r13725"
   sodipodi:docname="icon-advantages-5.svg"
   width="40"
   height="40"><metadata
     id="metadata25"><rdf:RDF><cc:Work
         rdf:about=""><dc:format>image/svg+xml</dc:format><dc:type
           rdf:resource="http://purl.org/dc/dcmitype/StillImage" /><dc:title></dc:title></cc:Work></rdf:RDF></metadata><defs
     id="defs23" /><sodipodi:namedview
     pagecolor="#ffffff"
     bordercolor="#666666"
     borderopacity="1"
     objecttolerance="10"
     gridtolerance="10"
     guidetolerance="10"
     inkscape:pageopacity="0"
     inkscape:pageshadow="2"
     inkscape:window-width="1920"
     inkscape:window-height="1017"
     id="namedview21"
     showgrid="false"
     inkscape:zoom="16.68772"
     inkscape:cx="15.807384"
     inkscape:cy="19.406159"
     inkscape:window-x="-8"
     inkscape:window-y="-8"
     inkscape:window-maximized="1"
     inkscape:current-layer="Слой_1" /><g
     id="g3"
     transform="translate(0.8614383,0)"><path
       d="M 24.024,0 0,0 0,40 29.999,40 29.999,5.977 24.024,0 Z m 0.143,2.5 3.333,3.333 -3.333,0 0,-3.333 z m -22.5,35.833 0,-36.666 20.833,0 0,5.833 5.835,0 0,30.833 -26.668,0 z"
       id="path5"
       inkscape:connector-curvature="0"
       style="fill:#444444" /><path
       d="m 24.167,29.167 -5,0 c -0.46,0 -0.833,0.372 -0.833,0.833 0,0.461 0.373,0.833 0.833,0.833 l 5,0 C 24.627,30.833 25,30.461 25,30 25,29.539 24.627,29.167 24.167,29.167 Z"
       id="path7"
       inkscape:connector-curvature="0"
       style="fill:#444444" /><path
       d="M 24.167,15 5.834,15 C 5.373,15 5,15.373 5,15.833 c 0,0.46 0.373,0.834 0.834,0.834 l 18.333,0 C 24.627,16.667 25,16.293 25,15.833 24.999,15.373 24.627,15 24.167,15 Z"
       id="path9"
       inkscape:connector-curvature="0"
       style="fill:#444444" /><path
       d="M 24.167,20 5.834,20 C 5.373,20 5,20.373 5,20.833 c 0,0.461 0.373,0.834 0.834,0.834 l 18.333,0 C 24.627,21.667 25,21.293 25,20.833 24.999,20.373 24.627,20 24.167,20 Z"
       id="path11"
       inkscape:connector-curvature="0"
       style="fill:#444444" /><path
       d="m 5.834,11.667 9.166,0 c 0.46,0 0.834,-0.374 0.834,-0.834 C 15.834,10.373 15.46,10 15,10 L 5.834,10 C 5.373,10 5,10.373 5,10.833 c 0,0.46 0.373,0.834 0.834,0.834 z"
       id="path13"
       inkscape:connector-curvature="0"
       style="fill:#444444" /><path
       d="M 9.167,25 C 6.866,25 5,26.865 5,29.167 5,30.529 5.655,31.74 6.667,32.5 l 0,4.167 2.5,-0.835 2.5,0.835 0,-4.167 c 1.012,-0.759 1.667,-1.97 1.667,-3.333 C 13.334,26.865 11.468,25 9.167,25 Z M 10,34.354 9.694,34.253 9.167,34.077 8.64,34.253 l -0.306,0.101 0,-1.105 c 0.269,0.055 0.548,0.083 0.833,0.083 0.285,0 0.564,-0.028 0.833,-0.083 l 0,1.105 z M 9.167,31.667 c -1.379,0 -2.5,-1.123 -2.5,-2.5 0,-1.379 1.121,-2.5 2.5,-2.5 1.379,0 2.5,1.121 2.5,2.5 0,1.377 -1.121,2.5 -2.5,2.5 z"
       id="path15"
       inkscape:connector-curvature="0"
       style="fill:#444444" /><path
       d="m 38.334,10 c 0,-1.841 -1.493,-3.334 -3.335,-3.334 -1.841,0 -3.332,1.492 -3.332,3.334 l 0,22.5 1.034,0 -1.034,3.611 3.332,2.222 3.335,-2.222 -1.035,-3.611 1.035,0 0,-22.5 z m -5,0 c 0,-0.919 0.747,-1.667 1.665,-1.667 0.92,0 1.667,0.748 1.667,1.667 l 0,20.833 -3.333,0 0,-20.833 z M 36.396,35.4 35,36.33 33.605,35.4 l 0.83,-2.9 1.132,0 0.829,2.9 z"
       id="path17"
       inkscape:connector-curvature="0"
       style="fill:#444444" /><path
       d="m 9.167,28.333 c -0.46,0 -0.833,0.374 -0.833,0.835 C 8.334,29.626 8.707,30 9.167,30 9.627,30 10,29.626 10,29.167 10,28.706 9.627,28.333 9.167,28.333 Z"
       id="path19"
       inkscape:connector-curvature="0"
       style="fill:#444444" /></g></svg>