<?xml version="1.0" encoding="UTF-8" standalone="no"?>
<!-- Generator: Adobe Illustrator 22.1.0, SVG Export Plug-In . SVG Version: 6.00 Build 0)  -->

<svg
   xmlns:dc="http://purl.org/dc/elements/1.1/"
   xmlns:cc="http://creativecommons.org/ns#"
   xmlns:rdf="http://www.w3.org/1999/02/22-rdf-syntax-ns#"
   xmlns:svg="http://www.w3.org/2000/svg"
   xmlns="http://www.w3.org/2000/svg"
   xmlns:sodipodi="http://sodipodi.sourceforge.net/DTD/sodipodi-0.dtd"
   xmlns:inkscape="http://www.inkscape.org/namespaces/inkscape"
   version="1.2"
   id="Слой_1"
   x="0px"
   y="0px"
   viewBox="0 0 37 37"
   xml:space="preserve"
   inkscape:version="0.91 r13725"
   sodipodi:docname="icon-delivery-1.svg"
   width="37"
   height="37"><metadata
     id="metadata23"><rdf:RDF><cc:Work
         rdf:about=""><dc:format>image/svg+xml</dc:format><dc:type
           rdf:resource="http://purl.org/dc/dcmitype/StillImage" /><dc:title></dc:title></cc:Work></rdf:RDF></metadata><defs
     id="defs21" /><sodipodi:namedview
     pagecolor="#ffffff"
     bordercolor="#666666"
     borderopacity="1"
     objecttolerance="10"
     gridtolerance="10"
     guidetolerance="10"
     inkscape:pageopacity="0"
     inkscape:pageshadow="2"
     inkscape:window-width="1920"
     inkscape:window-height="1017"
     id="namedview19"
     showgrid="false"
     fit-margin-top="0"
     fit-margin-left="0"
     fit-margin-right="0"
     fit-margin-bottom="0"
     inkscape:zoom="22.174981"
     inkscape:cx="20.531097"
     inkscape:cy="17.836457"
     inkscape:window-x="-8"
     inkscape:window-y="-8"
     inkscape:window-maximized="1"
     inkscape:current-layer="Слой_1" /><g
     id="g3"
     transform="matrix(0.41110945,0,0,0.41110945,0,0.94474357)"><path
       d="m 1.28,46.222 25.487,0 c 0.148,0 0.268,-0.12 0.268,-0.268 l 0,-22.45 c 0,-0.148 -0.12,-0.268 -0.268,-0.268 l -25.487,0 c -0.148,0 -0.268,0.12 -0.268,0.268 l 0,22.45 c 0,0.148 0.12,0.268 0.268,0.268 z m 9.015,-7.972 c 0.031,0.012 0.064,0.017 0.096,0.017 0.075,0 0.147,-0.031 0.199,-0.089 l 3.433,-3.825 3.433,3.825 c 0.052,0.058 0.125,0.089 0.199,0.089 0.032,0 0.065,-0.006 0.096,-0.017 0.103,-0.04 0.172,-0.139 0.172,-0.25 l 0,-12.024 6.372,0 0,17.508 -20.544,0 0,-17.508 6.372,0 0,12.024 c 0,0.111 0.069,0.21 0.172,0.25 z m 2.567,-6.632 0,-5.642 2.323,0 0,5.75 -1.062,-1.262 c -0.051,-0.061 -0.126,-0.095 -0.205,-0.095 -0.003,0 -0.006,0 -0.009,0 -0.082,0.003 -0.158,0.043 -0.207,0.109 l -0.84,1.14 z"
       id="path5"
       inkscape:connector-curvature="0"
       style="fill:#444444" /><path
       d="m 75.876,62.561 c -6.225,0 -11.289,5.064 -11.289,11.29 0,6.226 5.064,11.29 11.289,11.29 6.226,0 11.29,-5.064 11.29,-11.29 0,-6.226 -5.064,-11.29 -11.29,-11.29 z m 8.552,11.29 c 0,4.796 -3.756,8.552 -8.552,8.552 -4.795,0 -8.551,-3.756 -8.551,-8.552 0,-4.796 3.756,-8.552 8.551,-8.552 4.796,0 8.552,3.757 8.552,8.552 z"
       id="path7"
       inkscape:connector-curvature="0"
       style="fill:#444444" /><path
       d="m 75.876,68.737 c -2.82,0 -5.114,2.294 -5.114,5.114 0,2.821 2.294,5.115 5.114,5.115 2.821,0 5.115,-2.294 5.115,-5.115 0,-2.82 -2.294,-5.114 -5.115,-5.114 z m 2.377,5.013 c 0,1.311 -1.066,2.377 -2.377,2.377 -1.31,0 -2.376,-1.066 -2.376,-2.377 0,-1.311 1.066,-2.377 2.376,-2.377 1.31,0 2.377,1.067 2.377,2.377 z"
       id="path9"
       inkscape:connector-curvature="0"
       style="fill:#444444" /><path
       d="m 24.147,68.737 c -2.82,0 -5.115,2.294 -5.115,5.114 0,2.821 2.295,5.115 5.115,5.115 2.82,0 5.115,-2.294 5.115,-5.115 -0.001,-2.82 -2.295,-5.114 -5.115,-5.114 z m 2.376,5.013 c 0,1.311 -1.066,2.377 -2.376,2.377 -1.31,0 -2.376,-1.066 -2.376,-2.377 0,-1.311 1.066,-2.377 2.376,-2.377 1.31,0 2.376,1.067 2.376,2.377 z"
       id="path11"
       inkscape:connector-curvature="0"
       style="fill:#444444" /><path
       d="m 24.147,62.561 c -6.226,0 -11.29,5.064 -11.29,11.29 0,6.226 5.065,11.29 11.29,11.29 6.225,0 11.29,-5.064 11.29,-11.29 0,-6.226 -5.065,-11.29 -11.29,-11.29 z m 8.551,11.29 c 0,4.796 -3.756,8.552 -8.551,8.552 -4.795,0 -8.552,-3.756 -8.552,-8.552 0,-4.796 3.756,-8.552 8.552,-8.552 4.794,0 8.551,3.757 8.551,8.552 z"
       id="path13"
       inkscape:connector-curvature="0"
       style="fill:#444444" /><path
       d="M 89.987,69.195 C 88.7,64.839 85.464,61.428 81.101,59.824 l -2.912,-5.28 c 0.535,-0.043 1.03,-0.13 1.318,-0.188 l 0.877,-0.219 c 0.119,-0.03 0.202,-0.137 0.202,-0.26 l 0,-10.875 c 0,-0.131 -0.094,-0.243 -0.223,-0.264 l -1.289,-0.215 c -0.183,-0.031 -0.374,-0.07 -0.58,-0.113 -0.466,-0.096 -0.949,-0.195 -1.403,-0.195 -1.828,0 -3.6,0.45 -5.027,1.273 l -5.01,-9.332 c -0.047,-0.087 -0.138,-0.141 -0.236,-0.141 l -4.711,0 c 0.235,-0.518 0.358,-1.086 0.358,-1.668 0,-2.306 -2.1,-4.406 -4.407,-4.406 l -9.407,0.036 -7.01,-9.713 C 40.657,16.951 39.15,16.198 37.508,16.198 l -2.531,0 c -2.605,0 -4.899,2.099 -5.113,4.675 l -1.92,19.615 c -0.111,0.665 -0.003,1.312 0.101,1.941 0.633,3.69 3.613,6.472 6.932,6.472 l 10.779,0 0,13.309 c 0,2.708 2.294,4.912 5.115,4.912 2.967,0 4.811,-1.883 4.811,-4.919 L 55.379,45.507 c 0,-4.243 -3.2,-7.443 -7.443,-7.443 l -6.489,0 0.391,-3.826 2.468,2.438 c 0.051,0.05 0.118,0.077 0.188,0.077 l 14.643,0 6.847,16.479 -8.683,14.189 -13.058,0 -0.1,-17.955 C 44.142,49.319 44.023,49.2 43.875,49.2 l -37.444,0 C 3.125,49.199 0,52.324 0,55.629 l 0,23.372 c 0,0.148 0.12,0.268 0.268,0.268 l 12.459,0 c 0.085,0 0.165,-0.04 0.215,-0.108 0.051,-0.069 0.066,-0.157 0.041,-0.238 l -0.44,-1.431 c -0.381,-1.239 -0.592,-2.532 -0.592,-3.641 0,-3.487 1.542,-6.857 4.228,-9.244 2.271,-1.947 5.046,-2.977 8.026,-2.977 0.6,0 1.212,0.042 1.816,0.123 5.747,0.793 10.227,5.74 10.423,11.515 0.094,1.415 -0.36,2.919 -0.795,4.225 l -0.44,1.431 c -0.025,0.081 -0.01,0.169 0.041,0.238 0.051,0.068 0.13,0.108 0.215,0.108 l 28.992,0 c 0.085,0 0.165,-0.04 0.215,-0.109 0.051,-0.068 0.065,-0.156 0.041,-0.237 L 64.267,77.476 C 63.9,76.466 63.68,75.3 63.68,74.347 63.484,68.257 67.978,62.725 73.921,61.75 c 0.535,-0.106 1.102,-0.16 1.689,-0.16 0.364,0 0.751,0.022 1.177,0.066 l 0.101,0 c 0.296,0 0.73,0.067 1.319,0.202 l 0.13,-0.007 c 0.503,0.101 0.865,0.194 1.226,0.374 l 0.249,0.121 c 3.508,1.169 6.268,3.967 7.599,7.758 0.039,0.109 0.142,0.178 0.253,0.178 0.027,0 0.054,-0.003 0.08,-0.012 l 2.09,-0.659 c 0.14,-0.044 0.194,-0.276 0.153,-0.416 z M 39.604,28.885 38.359,40.506 c -0.008,0.075 0.016,0.151 0.067,0.208 0.051,0.056 0.123,0.089 0.199,0.089 l 9.311,0 c 2.727,0 4.705,1.979 4.705,4.705 l 0,16.702 c 0,1.523 -0.62,2.174 -2.073,2.174 -1.332,0 -2.377,-0.955 -2.377,-2.174 l 0,-15.78 c 0,-0.148 -0.119,-0.268 -0.268,-0.268 l -13.147,0 c -1.961,0 -3.73,-1.796 -4.209,-4.285 -0.086,-0.345 -0.085,-0.7 0.009,-1.093 L 32.5,21.135 c 0.088,-1.233 1.132,-2.199 2.377,-2.199 l 2.531,0 c 0.793,0 1.499,0.352 1.94,0.968 l 7.867,10.666 c 0.051,0.068 0.13,0.109 0.215,0.109 l 10.63,0 c 0.811,0 1.668,0.857 1.668,1.668 0,0.427 -0.179,0.841 -0.503,1.165 -0.324,0.324 -0.738,0.503 -1.166,0.503 L 45.476,34.04 40.058,28.723 c -0.051,-0.05 -0.119,-0.076 -0.187,-0.076 -0.031,0 -0.061,0.005 -0.091,0.016 -0.098,0.033 -0.166,0.12 -0.176,0.222 z m 33.813,17.047 c 1.089,-0.65 2.358,-0.979 3.776,-0.979 0.125,0 0.269,0.02 0.43,0.042 0.106,0.014 0.215,0.029 0.327,0.04 l 0,6.715 c -0.112,0.011 -0.223,0.026 -0.332,0.041 -0.155,0.02 -0.3,0.041 -0.425,0.041 l -0.499,0 -3.277,-5.9 z m -12.219,30.6 -22.42,0 c 0.262,-1.106 0.404,-2.298 0.404,-3.405 -0.314,-7.105 -5.8,-13.17 -12.758,-14.105 -0.695,-0.099 -1.403,-0.15 -2.104,-0.15 -3.612,0 -7.101,1.305 -9.823,3.675 -3.294,2.87 -5.184,6.99 -5.184,11.304 0,0.934 0.105,1.871 0.297,2.68 l -6.871,0 0,-20.902 c 0,-1.932 1.76,-3.692 3.692,-3.692 l 35.075,0 0,17.954 c 0,0.071 0.028,0.14 0.078,0.189 0.051,0.051 0.119,0.078 0.189,0.078 l 16.971,-0.042 c 0.092,0 0.178,-0.048 0.227,-0.126 L 69.1,53.61 c 0.045,-0.073 0.053,-0.164 0.02,-0.243 l -6.882,-16.614 3.202,0 12.223,22.194 c -0.592,-0.053 -1.187,-0.08 -1.774,-0.08 -0.818,0 -1.623,0.052 -2.396,0.155 -7.35,1.139 -12.862,7.88 -12.551,15.336 0,0.469 0.08,1.004 0.167,1.581 0.031,0.194 0.062,0.392 0.089,0.593 z"
       id="path15"
       inkscape:connector-curvature="0"
       style="fill:#444444" /><path
       d="m 36.902,15.899 c 4.309,0 7.949,-3.64 7.949,-7.95 0,-0.18 0,-0.364 -0.02,-0.554 l 4.206,0 c 0.148,0 0.268,-0.12 0.268,-0.268 l 0,-2.203 c 0,-0.148 -0.119,-0.268 -0.268,-0.268 l -4.914,0 C 42.879,1.864 40,0 36.902,0 c -4.383,0 -7.949,3.566 -7.949,7.949 -10e-4,4.384 3.566,7.95 7.949,7.95 z m 0,-13.16 c 1.618,0 3.074,0.693 4.066,1.918 l -8.063,0 c 0.914,-1.209 2.374,-1.918 3.997,-1.918 z m 0,10.421 c -2.824,0 -5.211,-2.387 -5.211,-5.211 0,-0.2 0,-0.381 0.026,-0.554 l 10.325,0 c 0.008,0.056 0.017,0.112 0.028,0.171 0.021,0.128 0.044,0.255 0.044,0.382 -10e-4,2.826 -2.387,5.212 -5.212,5.212 z"
       id="path17"
       inkscape:connector-curvature="0"
       style="fill:#444444" /></g></svg>