<?xml version="1.0" encoding="UTF-8" standalone="no"?>
<!-- Generator: Adobe Illustrator 22.1.0, SVG Export Plug-In . SVG Version: 6.00 Build 0)  -->

<svg
   xmlns:dc="http://purl.org/dc/elements/1.1/"
   xmlns:cc="http://creativecommons.org/ns#"
   xmlns:rdf="http://www.w3.org/1999/02/22-rdf-syntax-ns#"
   xmlns:svg="http://www.w3.org/2000/svg"
   xmlns="http://www.w3.org/2000/svg"
   xmlns:sodipodi="http://sodipodi.sourceforge.net/DTD/sodipodi-0.dtd"
   xmlns:inkscape="http://www.inkscape.org/namespaces/inkscape"
   version="1.2"
   id="Слой_1"
   x="0px"
   y="0px"
   viewBox="0 0 40.000002 40"
   xml:space="preserve"
   inkscape:version="0.91 r13725"
   sodipodi:docname="icon-advantages-6.svg"
   width="40"
   height="40"><metadata
     id="metadata11"><rdf:RDF><cc:Work
         rdf:about=""><dc:format>image/svg+xml</dc:format><dc:type
           rdf:resource="http://purl.org/dc/dcmitype/StillImage" /><dc:title></dc:title></cc:Work></rdf:RDF></metadata><defs
     id="defs9" /><sodipodi:namedview
     pagecolor="#ffffff"
     bordercolor="#666666"
     borderopacity="1"
     objecttolerance="10"
     gridtolerance="10"
     guidetolerance="10"
     inkscape:pageopacity="0"
     inkscape:pageshadow="2"
     inkscape:window-width="1920"
     inkscape:window-height="1017"
     id="namedview7"
     showgrid="false"
     inkscape:zoom="16.68772"
     inkscape:cx="24.002471"
     inkscape:cy="24.173053"
     inkscape:window-x="-8"
     inkscape:window-y="-8"
     inkscape:window-maximized="1"
     inkscape:current-layer="Слой_1" /><g
     id="g3"
     transform="translate(3.4606817,0)"><path
       d="M 5.192,0.002 C 5.13,-0.002 5.066,0 4.999,0.009 2.166,0.342 0,2.742 0,5.608 l 0,4.199 c 0,0.467 0.066,0.933 0.233,1.399 0.8,2.133 2.266,3.866 4.166,4.933 l 0,19.329 c 0,2.499 2.033,4.532 4.532,4.532 2.499,0 4.532,-2.033 4.532,-4.532 l 0,-19.263 c 2.166,-1.166 3.799,-3.099 4.299,-5.399 0.067,-0.233 0.067,-0.5 0.067,-0.8 l 0,-4.398 c 0,-2.866 -2.133,-5.266 -4.999,-5.599 -0.233,-0.033 -0.467,0.033 -0.633,0.2 -0.166,0.167 -0.267,0.4 -0.267,0.633 l 0,6.898 -2.999,1.433 -2.999,-1.433 0,-6.898 C 5.932,0.609 5.832,0.375 5.666,0.209 5.54,0.083 5.377,0.015 5.192,0.002 Z m 20.869,0.007 c -0.467,0 -0.833,0.367 -0.833,0.833 l 0,3.333 c 0,0.2 0.067,0.4 0.2,0.566 l 1.3,1.433 0,12.997 -2.333,0 -2,0 c -0.467,0 -0.833,0.367 -0.833,0.833 0,0.466 0.367,0.833 0.833,0.833 l 1.166,0 0,14.997 c 0,2.3 1.866,4.166 4.166,4.166 2.3,0 4.166,-1.866 4.166,-4.166 l 0,-14.997 0.833,0 c 0.467,0 0.833,-0.367 0.833,-0.833 0,-0.466 -0.367,-0.833 -0.833,-0.833 l -1.666,0 -2.666,0 0,-12.997 1.3,-1.433 c 0.133,-0.167 0.2,-0.366 0.2,-0.566 l 0,-3.333 c 0,-0.467 -0.367,-0.833 -0.833,-0.833 l -3,0 z m 0.833,1.666 1.333,0 0,2.166 -0.667,0.733 -0.667,-0.733 0,-2.166 z m -22.629,0.2 0,6.365 c 0,0.333 0.167,0.6 0.467,0.767 l 3.833,1.866 c 0.233,0.1 0.5,0.1 0.733,0 l 3.833,-1.866 c 0.3,-0.133 0.467,-0.434 0.467,-0.767 l 0,-6.365 c 1.533,0.567 2.6,2.033 2.6,3.733 l 0,4.399 c 0,0.167 0,0.333 -0.033,0.467 -0.633,2.966 -3.733,5.199 -7.232,5.199 -3.199,0 -6.032,-1.999 -7.098,-5.032 C 1.733,10.373 1.7,10.107 1.7,9.807 l 0,-4.199 c 0,-1.7 1.066,-3.167 2.565,-3.733 z m 1.8,14.996 c 0.9,0.3 1.866,0.467 2.866,0.467 1,0 1.966,-0.167 2.866,-0.434 l 0,18.563 c 0,1.6 -1.3,2.866 -2.866,2.866 -1.6,0 -2.866,-1.3 -2.866,-2.866 l 0,-18.596 z m 2.506,2.52 c -0.3,-0.016 -0.506,-0.004 -0.506,0.346 l 0,12.365 c 0,0.467 0.367,0.833 0.833,0.833 0.467,0 0.833,-0.367 0.833,-0.833 l 0,-12.365 c 0,-0.467 -0.367,-0.333 -0.833,-0.333 -0.117,0 -0.227,-0.008 -0.327,-0.013 z m 16.657,1.446 4.999,0 0,14.997 c 0,1.366 -1.133,2.499 -2.499,2.499 -1.366,0 -2.499,-1.133 -2.499,-2.499 l 0,-14.997 z m 2.333,1.667 c -0.467,0 -0.833,0.367 -0.833,0.833 l 0,12.064 c 0,0.467 0.367,0.833 0.833,0.833 0.467,0 0.833,-0.367 0.833,-0.833 l 0,-12.064 c 0,-0.467 -0.367,-0.833 -0.833,-0.833 z M 8.931,34.068 c -0.733,0 -1.333,0.6 -1.333,1.333 0,0.733 0.6,1.333 1.333,1.333 0.733,0 1.333,-0.6 1.333,-1.333 0,-0.733 -0.6,-1.333 -1.333,-1.333 z m 0,0.999 c 0.2,0 0.333,0.133 0.333,0.333 0,0.2 -0.133,0.333 -0.333,0.333 -0.2,0 -0.333,-0.133 -0.333,-0.333 0,-0.199 0.133,-0.333 0.333,-0.333 z"
       id="path5"
       inkscape:connector-curvature="0"
       style="fill:#444444" /></g></svg>