<?xml version="1.0" encoding="UTF-8" standalone="no"?>
<!-- Generator: Adobe Illustrator 22.1.0, SVG Export Plug-In . SVG Version: 6.00 Build 0)  -->

<svg
   xmlns:dc="http://purl.org/dc/elements/1.1/"
   xmlns:cc="http://creativecommons.org/ns#"
   xmlns:rdf="http://www.w3.org/1999/02/22-rdf-syntax-ns#"
   xmlns:svg="http://www.w3.org/2000/svg"
   xmlns="http://www.w3.org/2000/svg"
   xmlns:sodipodi="http://sodipodi.sourceforge.net/DTD/sodipodi-0.dtd"
   xmlns:inkscape="http://www.inkscape.org/namespaces/inkscape"
   version="1.2"
   id="Слой_1"
   x="0px"
   y="0px"
   viewBox="0 0 50 49.999998"
   xml:space="preserve"
   inkscape:version="0.91 r13725"
   sodipodi:docname="icon-loader-4.svg"
   width="50"
   height="50"><metadata
     id="metadata11"><rdf:RDF><cc:Work
         rdf:about=""><dc:format>image/svg+xml</dc:format><dc:type
           rdf:resource="http://purl.org/dc/dcmitype/StillImage" /><dc:title></dc:title></cc:Work></rdf:RDF></metadata><defs
     id="defs9" /><sodipodi:namedview
     pagecolor="#ffffff"
     bordercolor="#666666"
     borderopacity="1"
     objecttolerance="10"
     gridtolerance="10"
     guidetolerance="10"
     inkscape:pageopacity="0"
     inkscape:pageshadow="2"
     inkscape:window-width="1920"
     inkscape:window-height="1017"
     id="namedview7"
     showgrid="false"
     inkscape:zoom="4.722928"
     inkscape:cx="25"
     inkscape:cy="24.984501"
     inkscape:window-x="-8"
     inkscape:window-y="-8"
     inkscape:window-maximized="1"
     inkscape:current-layer="Слой_1" /><g
     id="g3"
     transform="matrix(0.999988,0,0,0.999988,0,0.03159763)"><path
       d="m 46.096,3.123 -42.162,0 c -0.468,0 -0.781,0.312 -0.781,0.781 l 0,23.423 c 0,0.468 0.312,0.781 0.781,0.781 l 42.162,0 c 0.468,0 0.781,-0.312 0.781,-0.781 l 0,-23.423 c 0,-0.469 -0.312,-0.781 -0.781,-0.781 z m -0.781,23.423 -40.6,0 0,-21.861 40.6,0 0,21.861 z M 47.658,0 2.373,0 C 1.046,0 0.031,1.015 0.031,2.342 l 0,30.45 c 0,1.327 1.015,2.342 2.342,2.342 l 45.285,0 C 48.985,35.134 50,34.119 50,32.792 L 50,2.342 C 50,1.015 48.985,0 47.658,0 Z m 0.78,32.792 c 0,0.468 -0.312,0.781 -0.781,0.781 l -45.284,0 c -0.468,0 -0.781,-0.312 -0.781,-0.781 l 0,-30.45 c 0,-0.468 0.312,-0.781 0.781,-0.781 l 45.285,0 c 0.468,0 0.781,0.312 0.781,0.781 l 0,30.45 z M 45.315,30.84 c 0,0.625 -0.547,1.171 -1.171,1.171 -0.625,0 -1.171,-0.547 -1.171,-1.171 0,-0.624 0.547,-1.171 1.171,-1.171 0.625,0 1.171,0.547 1.171,1.171 z m -3.903,0.391 c 0,0.468 -0.312,0.781 -0.781,0.781 l -7.027,0 c -0.468,0 -0.781,-0.312 -0.781,-0.781 0,-0.469 0.312,-0.781 0.781,-0.781 l 7.027,0 c 0.468,0 0.781,0.312 0.781,0.781 z M 11.742,12.492 c 0,-0.468 0.312,-0.781 0.781,-0.781 l 16.396,0 c 0.468,0 0.781,0.312 0.781,0.781 0,0.468 -0.312,0.781 -0.781,0.781 l -16.396,0 c -0.468,0 -0.781,-0.312 -0.781,-0.781 z m 19.519,0 c 0,-0.468 0.312,-0.781 0.781,-0.781 l 7.027,0 c 0.468,0 0.781,0.312 0.781,0.781 0,0.468 -0.312,0.781 -0.781,0.781 l -7.027,0 c -0.468,0 -0.781,-0.312 -0.781,-0.781 z m -19.519,3.123 c 0,-0.468 0.312,-0.781 0.781,-0.781 l 6.246,0 c 0.468,0 0.781,0.312 0.781,0.781 0,0.469 -0.312,0.781 -0.781,0.781 l -6.246,0 c -0.468,0 -0.781,-0.312 -0.781,-0.781 z m 10.15,-0.78 8.588,0 c 0.468,0 0.781,0.312 0.781,0.781 0,0.469 -0.312,0.781 -0.781,0.781 l -8.588,0 c -0.468,0 -0.781,-0.312 -0.781,-0.781 0,-0.469 0.313,-0.781 0.781,-0.781 z m -10.15,3.904 c 0,-0.468 0.312,-0.781 0.781,-0.781 l 9.369,0 c 0.468,0 0.781,0.312 0.781,0.781 0,0.468 -0.312,0.781 -0.781,0.781 l -9.369,0 c -0.468,-0.001 -0.781,-0.313 -0.781,-0.781 z m 33.573,24.203 c 0,-2.186 -1.718,-3.904 -3.904,-3.904 l -1.561,0 c -1.327,0 -2.342,-1.015 -2.342,-2.342 0,-0.468 -0.312,-0.781 -0.781,-0.781 -0.468,0 -0.781,0.312 -0.781,0.781 0,2.186 1.718,3.904 3.904,3.904 l 1.562,0 c 1.327,0 2.342,1.015 2.342,2.342 -2.577,0 -4.685,2.108 -4.685,4.685 0,1.327 1.015,2.342 2.342,2.342 l 6.246,0 c 1.327,0 2.342,-1.015 2.342,-2.342 C 50,45.051 47.892,42.942 45.315,42.942 Z m 2.343,5.466 -6.246,0 c -0.468,0 -0.781,-0.312 -0.781,-0.781 0,-1.718 1.405,-3.123 3.123,-3.123 l 1.562,0 c 1.718,0 3.123,1.405 3.123,3.123 -10e-4,0.469 -0.313,0.781 -0.781,0.781 z M 35.946,42.162 c 0,0.468 -0.312,0.781 -0.781,0.781 l -20.3,0 c -0.468,0 -0.781,-0.312 -0.781,-0.781 0,-0.468 0.312,-0.781 0.781,-0.781 l 0.781,0 c 2.577,0 4.685,-2.108 4.685,-4.685 0,-0.468 0.312,-0.781 0.781,-0.781 0.469,0 0.781,0.312 0.781,0.781 0,1.874 -0.859,3.513 -2.108,4.685 l 10.462,0 C 28.92,40.21 28.139,38.57 28.139,36.696 c 0,-0.468 0.312,-0.781 0.781,-0.781 0.469,0 0.781,0.312 0.781,0.781 0,2.577 2.108,4.685 4.685,4.685 l 0.781,0 c 0.467,0 0.779,0.312 0.779,0.781 z m -2.342,3.747 c -0.078,-0.312 -0.39,-0.625 -0.781,-0.625 l -31.231,0 c -0.39,0 -0.703,0.234 -0.781,0.625 L 0.03,49.032 c -0.078,0.234 0,0.468 0.156,0.703 0.156,0.156 0.39,0.234 0.625,0.234 l 32.792,0 c 0.234,0 0.468,-0.078 0.625,-0.312 0.156,-0.156 0.234,-0.468 0.156,-0.703 l -0.78,-3.045 z m -31.778,2.499 0.39,-1.562 29.982,0 0.39,1.562 -30.762,0 z"
       id="path5"
       inkscape:connector-curvature="0"
       style="fill:#25925e" /></g></svg>