<?xml version="1.0" encoding="UTF-8" standalone="no"?>
<!-- Generator: Adobe Illustrator 22.1.0, SVG Export Plug-In . SVG Version: 6.00 Build 0)  -->

<svg
   xmlns:dc="http://purl.org/dc/elements/1.1/"
   xmlns:cc="http://creativecommons.org/ns#"
   xmlns:rdf="http://www.w3.org/1999/02/22-rdf-syntax-ns#"
   xmlns:svg="http://www.w3.org/2000/svg"
   xmlns="http://www.w3.org/2000/svg"
   xmlns:sodipodi="http://sodipodi.sourceforge.net/DTD/sodipodi-0.dtd"
   xmlns:inkscape="http://www.inkscape.org/namespaces/inkscape"
   version="1.2"
   id="Слой_1"
   x="0px"
   y="0px"
   viewBox="0 0 50 50"
   xml:space="preserve"
   inkscape:version="0.91 r13725"
   sodipodi:docname="icon-loader-3.svg"
   width="50"
   height="50"><metadata
     id="metadata15"><rdf:RDF><cc:Work
         rdf:about=""><dc:format>image/svg+xml</dc:format><dc:type
           rdf:resource="http://purl.org/dc/dcmitype/StillImage" /><dc:title></dc:title></cc:Work></rdf:RDF></metadata><defs
     id="defs13" /><sodipodi:namedview
     pagecolor="#ffffff"
     bordercolor="#666666"
     borderopacity="1"
     objecttolerance="10"
     gridtolerance="10"
     guidetolerance="10"
     inkscape:pageopacity="0"
     inkscape:pageshadow="2"
     inkscape:window-width="1920"
     inkscape:window-height="1017"
     id="namedview11"
     showgrid="false"
     inkscape:zoom="4.72"
     inkscape:cx="22.215619"
     inkscape:cy="25"
     inkscape:window-x="-8"
     inkscape:window-y="-8"
     inkscape:window-maximized="1"
     inkscape:current-layer="Слой_1" /><g
     id="g3"
     transform="translate(10.423728,0)"><rect
       x="9.5249996"
       y="6.7969999"
       width="2.5320001"
       height="2.5320001"
       id="rect5"
       style="fill:#25925e" /><rect
       x="17.120001"
       y="6.7969999"
       width="2.5320001"
       height="2.5320001"
       id="rect7"
       style="fill:#25925e" /><path
       d="m 27.911,13.608 -3.462,0 0,-12.342 C 24.449,0.567 23.883,0 23.184,0 L 5.994,0 C 5.295,0 4.728,0.567 4.728,1.266 l 0,12.342 -3.462,0 C 0.567,13.608 0,14.174 0,14.873 L 0,26.69 c 0.008,5.703 4.464,10.409 10.158,10.728 l 0,11.316 c 0,0.699 0.567,1.266 1.266,1.266 l 6.329,0 c 0.699,0 1.266,-0.567 1.266,-1.266 l 0,-11.316 c 5.706,-0.319 10.167,-5.044 10.158,-10.759 l 0,-11.786 c 0,-0.699 -0.567,-1.265 -1.266,-1.265 z M 6.593,2.028 l 15.992,0 0,11.702 -15.992,0 0,-11.702 z m 10.524,45.999 -5.057,0 0,-10.578 5.057,0 0,10.578 z m 9.987,-21.293 c 0,4.717 -3.824,8.541 -8.541,8.541 l -7.949,0 c -4.717,0 -8.541,-3.824 -8.541,-8.541 l 0,-10.952 25.031,0 0,10.952 z"
       id="path9"
       inkscape:connector-curvature="0"
       style="fill:#25925e" /></g></svg>