<?xml version="1.0" encoding="UTF-8" standalone="no"?>
<!-- Generator: Adobe Illustrator 22.1.0, SVG Export Plug-In . SVG Version: 6.00 Build 0)  -->

<svg
   xmlns:dc="http://purl.org/dc/elements/1.1/"
   xmlns:cc="http://creativecommons.org/ns#"
   xmlns:rdf="http://www.w3.org/1999/02/22-rdf-syntax-ns#"
   xmlns:svg="http://www.w3.org/2000/svg"
   xmlns="http://www.w3.org/2000/svg"
   xmlns:sodipodi="http://sodipodi.sourceforge.net/DTD/sodipodi-0.dtd"
   xmlns:inkscape="http://www.inkscape.org/namespaces/inkscape"
   version="1.2"
   id="Слой_1"
   x="0px"
   y="0px"
   viewBox="0 0 40 40"
   xml:space="preserve"
   inkscape:version="0.91 r13725"
   sodipodi:docname="icon-advantages-7.svg"
   width="40"
   height="40"><metadata
     id="metadata9"><rdf:RDF><cc:Work
         rdf:about=""><dc:format>image/svg+xml</dc:format><dc:type
           rdf:resource="http://purl.org/dc/dcmitype/StillImage" /><dc:title></dc:title></cc:Work></rdf:RDF></metadata><defs
     id="defs7" /><sodipodi:namedview
     pagecolor="#ffffff"
     bordercolor="#666666"
     borderopacity="1"
     objecttolerance="10"
     gridtolerance="10"
     guidetolerance="10"
     inkscape:pageopacity="0"
     inkscape:pageshadow="2"
     inkscape:window-width="1920"
     inkscape:window-height="1017"
     id="namedview5"
     showgrid="false"
     inkscape:zoom="7.275"
     inkscape:cx="20"
     inkscape:cy="16.592454"
     inkscape:window-x="-8"
     inkscape:window-y="-8"
     inkscape:window-maximized="1"
     inkscape:current-layer="Слой_1" /><path
     d="m 30.661533,13.602373 0,-0.042 c 0,-0.042 0,-0.042 -0.042,-0.084 0,-0.042 -0.042,-0.042 -0.042,-0.084 0,0 0,-0.042 -0.042,-0.042 -0.042,-0.042 -0.042,-0.084 -0.084,-0.084 l 0,0 -3.770189,-3.770188 C 26.556338,9.372162 26.347327,9.288158 26.179319,9.288158 l 0,0 -5.277264,0 0,0 0,0 -5.026251,0 c -0.209011,0 -0.377019,0.084 -0.503025,0.209011 l -3.770189,3.770188 0,0 c -0.042,0.042 -0.042,0.084 -0.084,0.084 l -0.042,0.042 c 0,0.042 -0.042,0.042 -0.042,0.084 0,0.042 0,0.042 -0.042,0.084 l 0,0.042 c 0,0.042 0,0.084 0,0.126007 l 0,15.789789 c 0,0.377019 0.335016,0.712036 0.712035,0.712036 l 2.681134,0 c 0.084,0 0.126007,0 0.209011,-0.042 0.20901,1.340067 1.382069,2.387119 2.80614,2.387119 1.382069,0 2.555128,-1.00505 2.764138,-2.346117 0.042,0 0.084,0 0.126007,0 l 9.340467,0 1.592079,0 c 0.251013,1.340067 1.382069,2.346117 2.764138,2.346117 1.382069,0 2.555128,-1.00505 2.764139,-2.346117 l 2.136106,0 C 39.664983,30.230205 40,29.895188 40,29.518169 l 0,-7.414371 c 0,-1.885094 -0.545027,-3.476174 -1.550078,-4.565228 -0.963048,-1.047052 -2.304115,-1.59208 -3.81219,-1.59208 l -3.937197,0 0,-2.218111 c -0.039,-0.042 -0.039,-0.084 -0.039,-0.126006 z m -9.047452,-2.890144 4.272213,0 2.345118,2.346117 -6.618331,0 0,-2.346117 z m -5.487275,0 4.021201,0 0,2.346117 -6.367318,0 2.346117,-2.346117 z m 1.59108,20.483024 c -0.754038,0 -1.382069,-0.628031 -1.382069,-1.382069 0,-0.754038 0.628031,-1.382069 1.382069,-1.382069 0.754038,0 1.382069,0.628031 1.382069,1.382069 0,0.754038 -0.628031,1.382069 -1.382069,1.382069 z m 11.477574,-14.534727 0,12.18861 -8.58643,0 c -0.084,0 -0.168008,0 -0.20901,0.042 -0.377019,-1.131057 -1.424071,-1.927097 -2.681134,-1.927097 -1.257063,0 -2.304115,0.838042 -2.681134,1.927097 -0.084,-0.042 -0.209011,-0.084 -0.293015,-0.084 l -1.927096,0 0,-14.366719 16.419821,0 0,2.220111 -0.042,0 z m 5.110255,14.534727 c -0.754037,0 -1.382069,-0.628031 -1.382069,-1.382069 0,-0.754038 0.628032,-1.382069 1.382069,-1.382069 0.754038,0 1.382069,0.628031 1.382069,1.382069 0,0.754038 -0.628031,1.382069 -1.382069,1.382069 z M 34.59873,17.372562 c 2.429121,0 3.937197,1.80109 3.937197,4.733236 l 0,6.702336 -1.550078,0 c -0.377019,-1.089055 -1.424071,-1.885095 -2.681134,-1.885095 -1.215061,0 -2.262113,0.79604 -2.639132,1.885095 l -0.963048,0 0,-11.435572 3.896195,0 z m -30.8285415,-0.335017 5.4872744,0 c 0.3770188,0 0.7120356,0.335017 0.7120356,0.712036 0,0.377018 -0.3350168,0.712035 -0.7120356,0.712035 l -5.4872744,0 c -0.3770188,0 -0.7120356,-0.335017 -0.7120356,-0.712035 0,-0.377019 0.3350168,-0.712036 0.7120356,-0.712036 z M 0,21.644775 C 0,21.267757 0.33501675,20.93274 0.7120356,20.93274 l 8.5034252,0 c 0.3770188,0 0.7120356,0.335017 0.7120356,0.712035 0,0.377019 -0.3350168,0.712036 -0.7120356,0.712036 l -8.5034252,0 C 0.33501675,22.356811 0,22.063796 0,21.644775 Z m 9.9694985,3.895195 c 0,0.377019 -0.3350168,0.712036 -0.7120356,0.712036 l -5.4872744,0 c -0.3770188,0 -0.7120356,-0.335017 -0.7120356,-0.712036 0,-0.377019 0.3350168,-0.712035 0.7120356,-0.712035 l 5.4872744,0 c 0.4180209,0 0.7120356,0.293014 0.7120356,0.712035 z m 6.3663185,-3.81119 c 0,-0.377019 0.335017,-0.712036 0.712035,-0.712036 l 5.529277,0 -0.963048,-0.963048 c -0.293015,-0.293015 -0.293015,-0.754038 0,-1.005051 0.293014,-0.293014 0.754037,-0.293014 1.00505,0 l 2.178109,2.17811 0,0 0,0 c 0.042,0.042 0.042,0.084 0.084,0.084 0,0 0,0.042 0.042,0.042 0,0.042 0.042,0.042 0.042,0.084 0,0.042 0,0.042 0.042,0.084 l 0,0.042 c 0,0.042 0,0.08401 0,0.126007 0,0.042 0,0.084 0,0.126006 l 0,0.042 c 0,0.042 0,0.042 -0.042,0.084 0,0.042 -0.042,0.042 -0.042,0.084 0,0 0,0.042 -0.042,0.042 -0.042,0.042 -0.042,0.084 -0.084,0.084 l 0,0 0,0 -2.304115,2.304115 c -0.126007,0.126006 -0.335017,0.20901 -0.503025,0.20901 -0.168009,0 -0.377019,-0.084 -0.503026,-0.20901 -0.293014,-0.293015 -0.293014,-0.754038 0,-1.00505 l 1.089055,-1.089055 -5.529277,0 c -0.376018,0.08 -0.711035,-0.255013 -0.711035,-0.632031 z"
     id="path3"
     inkscape:connector-curvature="0"
     style="fill:#444444" /></svg>