<?xml version="1.0" encoding="utf-8"?>
<!-- Generator: Adobe Illustrator 22.1.0, SVG Export Plug-In . SVG Version: 6.00 Build 0)  -->
<svg version="1.2" baseProfile="tiny" id="Layer_1" xmlns="http://www.w3.org/2000/svg" xmlns:xlink="http://www.w3.org/1999/xlink"
	 x="0px" y="0px" viewBox="0 0 207.2 59.7" xml:space="preserve">
<g>
	<path fill="#F1F2F2" d="M0,59.7V20C0,14.5,2,9.8,5.9,5.9C9.8,2,14.5,0,20,0c5.5,0,10.3,2,14.2,5.9c3.9,3.9,5.9,8.6,5.9,14.2v35.5
		l-8.5,4.1V20.2c-0.1-3.3-1.2-6-3.4-8.2c-2.3-2.2-5-3.4-8-3.4c-3.2,0-5.9,1.1-8.3,3.4c-2.3,2.2-3.4,4.9-3.4,8c0,0.1,0,0.1,0,0.2
		v35.3L0,59.7z"/>
	<path fill="#F1F2F2" d="M134.9,51c3,0,5.6-1.1,7.8-3.4c2.2-2.2,3.4-4.9,3.4-8c0-0.1,0-0.1,0-0.2V4.1l8.5-4.1v39.6
		c0,5.5-2,10.3-5.9,14.2c-3.9,3.9-8.6,5.9-14.2,5.9c-5.5,0-10.3-2-14.2-5.9c-3.9-3.9-5.9-8.6-5.9-14.2V19.5l8.5-4.1v24.1
		c0.1,3.3,1.2,6,3.4,8.2C128.6,49.9,131.5,51,134.9,51z"/>
	<path fill="#F1F2F2" d="M187.8,51c3.2,0,5.8-1.1,7.8-3.2c2.1-2.2,3.1-4.6,3.1-7.3c0-2.4-1-4.6-3.1-6.8c-2.1-2.1-4.9-3.3-8.5-3.5
		c-4.4-0.2-7.9-1.5-10.5-4c-2.5-2.4-4-5.8-4.5-10.2c0-0.3-0.1-0.6-0.1-1c0.2-3.9,1.7-7.3,4.7-10.3c3-3.2,6.7-4.7,11-4.7
		c4.6,0,8.3,1.6,11,4.7c1.8,2.1,3.2,4.8,4.2,8.1c-1,0.5-7.6,3.7-7.6,3.7c-0.6-2.3-1.4-4.2-2.6-5.6c-1.3-1.5-3-2.2-5.1-2.2
		c-2,0-3.7,0.7-5.1,2.2c-1.3,1.4-2,2.9-2,4.6c0,0.1,0,0.2,0,0.3c0,1.7,0.6,3.2,1.9,4.4c1.2,1.2,2.9,1.9,5.1,2.1
		c6.2,0.7,10.9,2.6,14.2,5.7c3.6,3.5,5.4,7.7,5.4,12.7V41c-0.1,4.8-1.8,9-5.3,12.8c-3.6,3.9-8.3,5.9-14.2,5.9
		c-5.6,0-10.2-1.9-13.7-5.8c-4-4.2-6.2-9.1-6.4-14.4l8.5-4.1l0.1,4.1c0,3.3,1.2,6,3.4,8.2C181.8,49.9,184.5,51,187.8,51z"/>
	<path fill="#F1F2F2" d="M65.7,34.8V20.2v-0.3c0-3,1.2-5.7,3.4-7.9c2.2-2.2,4.8-3.4,7.8-3.4c3.4,0,6.2,1.1,8.5,3.4
		c2.2,2.2,3.3,4.9,3.4,8.2v3.4l8.5-4.1c-0.1-5.3-2.1-9.9-5.9-13.7C87.5,2,82.8,0,77.2,0C71.7,0,67,2,63.1,5.9
		c-3.9,3.9-5.9,8.6-5.9,14.2v18.8L65.7,34.8z"/>
	<path fill="#F1F2F2" d="M88.8,32.1L88.8,32.1v7.3c-0.1,3.3-1.2,6-3.4,8.2c-2.3,2.2-4.9,3.4-7.9,3.4c-3.1,0-5.8-1.1-8.3-3.4
		c-1.4-1.3-2.4-2.9-3-4.6l-7.8,3.7c1,2.6,2.5,4.9,4.6,7c3.9,3.9,8.6,5.9,14.2,5.9c5.5,0,10.3-2,14.2-5.9c3.9-3.9,5.9-8.6,5.9-14.2
		V28.1v0L88.8,32.1z"/>
</g>
</svg>
